<svg height="642.09" width="418.915" xmlns="http://www.w3.org/2000/svg"><g fill="#fff" stroke="#226fba"><g stroke-miterlimit="10"><path d="m138.655 443.412 12.211 28.492 40.7 18.317zm2.035-34.597 32.563-28.492h-30.528z"/><path d="m138.655 443.413 2.035-34.6-18.316 16.281zm-73.266-65.125 32.563-36.633 14.246 46.809z"/><path d="m122.374 425.096 18.315-16.281-28.492-20.352z"/><path d="m140.689 408.815 2.035-28.492-30.527 8.141zm2.036-28.492h30.527l-8.136-36.633zm10.176-93.618 22.391 20.352-10.18 36.632z"/><path d="m165.112 343.69 8.141 36.633 32.563-28.492z"/><path d="m173.252 380.322 42.738-2.035-10.176-26.457zm101.758-46.808 42.738 34.6-32.563 6.105zm63.091 122.112v-54.952l-18.317 24.422zm-22.387 50.876 22.385-50.879-28.492 18.316zm-40.704 32.563 40.7-32.563-36.633 8.141zm-63.09 22.386 63.091-22.386h-42.739z"/><path d="m154.936 557.381 56.984 4.07-36.633-20.352zm56.985 4.07 20.352-22.387-56.984 2.035zm-113.969-26.457 56.984 22.387-18.316-28.492z"/><path d="m154.937 557.381 20.352-16.281-38.668-12.211zm-93.618-67.16 36.633 44.773-6.105-38.668z"/><path d="m97.952 534.995 38.668-6.105-44.773-32.562zm38.668-6.106 14.246-56.985-59.02 24.422zm-87.512-103.794 16.281-46.809 24.422 38.668z"/><path d="m65.389 378.287 46.809 10.176-22.387 28.492zm46.813 10.176 10.176 36.633-32.563-8.141zm-63.094 36.633 12.211 65.125 40.7-32.563zm0-.001 40.7-8.141 12.211 40.7zm12.211 65.126 30.527 6.106 10.176-38.668zm28.492-73.266 32.563 8.141-20.352 32.562zm2.035 79.372 59.02-24.422-48.844-14.246z"/><path d="m122.374 425.096 16.281 18.316-36.633 14.246zm16.281 18.316 12.211 28.492-48.844-14.246zm-2.035 85.477 14.246-56.985 24.422 42.738zm0 0 38.668 12.206v-26.452z"/><path d="m150.866 471.905 40.7 18.317-16.281 24.422z"/><path d="m175.288 541.095 56.984-2.035-56.984-24.422z"/><path d="m191.569 490.221 40.7 48.844-56.981-24.422zm0 0 36.633-10.176 16.281 26.452z"/><path d="m191.569 490.221 40.7 48.844 12.211-32.563zm40.703 48.844h42.738l-30.527-32.562z"/><path d="m275.011 539.065 4.07-24.422-34.6-8.141zm-46.809-59.02 16.282 26.452 38.668-22.387z"/><path d="m228.202 480.045 24.422-34.6 30.527 38.668zm16.281 26.458 34.6 8.141 4.07-30.527z"/><path d="m279.081 514.643 36.633-8.141-32.562-22.386z"/><path d="m309.608 473.94 6.105 32.563-32.562-22.387zm-56.984-28.493 30.527 38.668 16.281-44.774z"/><path d="m283.151 484.115 26.457-10.176-10.176-34.6z"/><path d="m309.608 473.939 28.492-18.316-38.668-16.281zm10.176-48.843 18.316 30.527-38.668-16.281zm-75.301-26.457 8.141 46.809 30.527-48.844zm0 0 40.7-24.422-2.035 22.387z"/><path d="m252.624 445.448 46.809-6.105-16.281-42.738zm32.562-71.231 32.563-6.106-34.6 28.492zm14.247 65.125 20.352-14.246-36.633-28.492z"/><path d="m317.749 368.112 20.352 32.563-54.949-4.07z"/><path d="m319.784 425.096 18.316-24.422-54.949-4.07zm-44.774-91.579 28.491-22.39-16.28-32.562zm28.493-22.39 10.176-46.809-26.457 14.246zm-16.282-32.563 26.457-14.251-20.352-26.457z"/><path d="m299.433 215.475 14.246 48.844-20.352-26.457zm-32.563-28.492 32.563 28.492-28.492-10.176z"/><path d="m293.331 237.861 6.106-22.387-28.492-10.176zm-113.973-6.106 28.491 2.036-16.28-24.422zm-26.457 18.312 26.457-18.316-20.352-8.141z"/><path d="m179.358 231.755 12.211-22.387-32.562 14.246zm-26.457 54.95v-36.633l-20.352 16.281zm-56.985-81.411 44.773-26.457-18.316 48.844z"/><path d="m132.549 266.354 20.352-16.281-30.527-22.387zm20.352-16.287 6.105-26.457-36.633 4.07zm-56.985-44.768 26.457 22.387-40.7-4.07z"/><path d="m122.373 227.686 18.316-48.844 10.175 16.281z"/><path d="m122.373 227.685 36.633-4.07-8.142-28.492zm65.125-56.984 30.527 2.035-8.136 14.246zm-113.968 81.407 8.141 42.738 32.563-14.246z"/><path d="m81.67 294.846 16.281 46.806 16.281-61.055zm16.282 46.806 54.949-54.949-38.668-6.105z"/><path d="m132.55 266.354 20.351 20.352-38.668-6.105zm-59.02-14.247 8.141-28.492 26.457 22.387z"/><path d="m73.53 252.107 40.7 28.492-6.106-34.6z"/><path d="m81.67 223.615 40.7 4.07-14.246 18.316zm32.563 56.984 18.316-14.245-24.422-20.352z"/><path d="m122.373 227.686 10.176 38.668-24.422-20.352zm148.567-22.387 22.387 32.563-32.562-10.176zm-36.633 50.879 4.07 24.422 16.281-8.141zm0 0 26.457-28.492-6.105 44.773z"/><path d="m260.765 227.686 32.563 10.176-38.668 34.6zm26.457 50.878 6.105-40.7-38.668 34.6zm-95.653-69.195 16.281 24.422 14.246-24.422zm0 0 18.316-22.387 12.211 22.387z"/><path d="m207.85 233.791 26.457 22.387-12.211-46.809zm2.035-46.809 8.141-14.246 4.07 36.633zm8.141-14.246 48.844 14.246-44.773 22.387zm16.281 83.441 26.457-28.492-38.668-18.316z"/><path d="m260.764 227.686 10.176-22.387-48.844 4.07z"/><path d="m266.87 186.983 4.07 18.316-48.844 4.07zm-126.18-8.141 10.176 16.281 28.492-6.106zm0-.001 46.809-8.141-8.141 18.316z"/><path d="m150.866 195.123 8.141 28.492 20.352-34.6z"/><path d="m159.006 223.615 32.563-14.245-12.211-20.352zm28.493-52.914 22.387 16.281-30.527 2.035z"/><path d="m191.569 209.369 18.316-22.387-30.527 2.035zm14.246 142.461 10.176 26.452 26.457-14.246zm10.176 26.457 28.491 20.351-2.035-34.6z"/><path d="m244.483 398.638 40.7-24.422-42.738-10.176zm30.528-65.124 10.176 40.7-42.738-10.176zm-109.899 10.176 10.176-36.633 30.527 18.316z"/><path d="m165.112 343.689 40.7 8.141v-26.457zm10.176-36.632 34.6 2.035-4.07 16.281z"/><path d="m205.815 351.825v-26.452h38.668zm0-26.452 4.07-16.281 34.6 16.281z"/><path d="m205.815 351.825 36.633 12.211 2.035-38.668z"/><path d="m209.885 309.092 28.491-28.492 6.105 44.774zm28.492-28.493 16.281-8.141-10.176 52.914zm4.071 83.442 32.562-30.527-30.527-8.141zm12.211-91.582 32.563 6.105-42.738 46.809z"/><path d="m275.011 333.517 12.211-54.949-42.738 46.809zm-177.059 8.138 14.246 46.809 14.245-30.528z"/><path d="m97.952 341.657 54.949-54.949-26.458 71.227zm14.246 46.806 30.527-8.141-16.281-22.387zm30.528-8.14 22.387-36.633-38.668 14.246z"/><path d="m152.901 286.705 12.211 56.984-38.668 14.246z"/></g><path d="m143.26 443.421a4.607 4.607 0 1 1 -4.606-4.612 4.6 4.6 0 0 1 4.606 4.612zm4.07-63.09a4.607 4.607 0 1 1 -4.606-4.612 4.6 4.6 0 0 1 4.606 4.612zm30.528 0a4.607 4.607 0 1 1 -4.606-4.612 4.6 4.6 0 0 1 4.606 4.612zm-32.563 28.493a4.607 4.607 0 1 1 -4.606-4.612 4.6 4.6 0 0 1 4.606 4.612zm-18.316 16.281a4.607 4.607 0 1 1 -4.606-4.612 4.6 4.6 0 0 1 4.606 4.612z"/><path d="m145.295 408.824a4.607 4.607 0 1 1 -4.606-4.612 4.6 4.6 0 0 1 4.606 4.612zm-2.035 34.597a4.607 4.607 0 1 1 -4.606-4.612 4.6 4.6 0 0 1 4.606 4.612zm-26.457-54.949a4.607 4.607 0 1 1 -4.606-4.612 4.6 4.6 0 0 1 4.606 4.612zm-14.246-46.809a4.607 4.607 0 1 1 -4.606-4.612 4.6 4.6 0 0 1 4.606 4.612zm-32.563 36.633a4.607 4.607 0 1 1 -4.606-4.612 4.6 4.6 0 0 1 4.606 4.612z"/><path d="m116.803 388.472a4.607 4.607 0 1 1 -4.606-4.612 4.6 4.6 0 0 1 4.606 4.612zm28.492 20.352a4.607 4.607 0 1 1 -4.606-4.612 4.6 4.6 0 0 1 4.606 4.612zm-18.316 16.281a4.607 4.607 0 1 1 -4.606-4.612 4.6 4.6 0 0 1 4.606 4.612z"/><path d="m116.803 388.472a4.607 4.607 0 1 1 -4.606-4.612 4.6 4.6 0 0 1 4.606 4.612zm30.527-8.141a4.607 4.607 0 1 1 -4.606-4.612 4.6 4.6 0 0 1 4.606 4.612zm-2.035 28.493a4.607 4.607 0 1 1 -4.606-4.612 4.6 4.6 0 0 1 4.606 4.612zm24.422-65.126a4.607 4.607 0 1 1 -4.606-4.612 4.6 4.6 0 0 1 4.606 4.612zm8.141 36.633a4.607 4.607 0 1 1 -4.606-4.612 4.6 4.6 0 0 1 4.606 4.612z"/><path d="m147.33 380.331a4.607 4.607 0 1 1 -4.606-4.612 4.6 4.6 0 0 1 4.606 4.612zm22.387-36.633a4.607 4.607 0 1 1 -4.606-4.612 4.6 4.6 0 0 1 4.606 4.612zm10.176-36.632a4.607 4.607 0 1 1 -4.606-4.612 4.6 4.6 0 0 1 4.606 4.612zm-22.387-20.352a4.607 4.607 0 1 1 -4.606-4.612 4.6 4.6 0 0 1 4.606 4.612zm52.914 65.125a4.607 4.607 0 1 1 -4.606-4.612 4.6 4.6 0 0 1 4.606 4.612zm-32.562 28.492a4.607 4.607 0 1 1 -4.606-4.612 4.6 4.6 0 0 1 4.606 4.612z"/><path d="m169.717 343.698a4.607 4.607 0 1 1 -4.606-4.612 4.6 4.6 0 0 1 4.606 4.612zm40.703 8.141a4.607 4.607 0 1 1 -4.606-4.612 4.6 4.6 0 0 1 4.606 4.612zm10.176 26.457a4.607 4.607 0 1 1 -4.606-4.612 4.6 4.6 0 0 1 4.606 4.612zm-42.738 2.035a4.607 4.607 0 1 1 -4.606-4.612 4.6 4.6 0 0 1 4.606 4.612zm111.933-6.105a4.607 4.607 0 1 1 -4.606-4.612 4.6 4.6 0 0 1 4.606 4.612zm-10.176-40.703a4.607 4.607 0 1 1 -4.606-4.612 4.6 4.6 0 0 1 4.606 4.612zm-185.199 83.441a4.607 4.607 0 1 1 -4.606-4.612 4.6 4.6 0 0 1 4.606 4.612zm-24.422-38.668a4.607 4.607 0 1 1 -4.606-4.612 4.6 4.6 0 0 1 4.606 4.612zm-16.281 46.809a4.607 4.607 0 1 1 -4.606-4.612 4.6 4.6 0 0 1 4.606 4.612z"/><path d="m94.416 416.964a4.607 4.607 0 1 1 -4.606-4.612 4.6 4.6 0 0 1 4.606 4.612zm22.387-28.492a4.607 4.607 0 1 1 -4.606-4.612 4.6 4.6 0 0 1 4.606 4.612zm-46.809-10.176a4.607 4.607 0 1 1 -4.606-4.612 4.6 4.6 0 0 1 4.606 4.612z"/><path d="m94.416 416.964a4.607 4.607 0 1 1 -4.606-4.612 4.6 4.6 0 0 1 4.606 4.612zm32.563 8.141a4.607 4.607 0 1 1 -4.606-4.612 4.6 4.6 0 0 1 4.606 4.612zm-10.176-36.633a4.607 4.607 0 1 1 -4.606-4.612 4.6 4.6 0 0 1 4.606 4.612zm-63.09 36.633a4.607 4.607 0 1 1 -4.606-4.612 4.6 4.6 0 0 1 4.606 4.612z"/><path d="m94.416 416.964a4.607 4.607 0 1 1 -4.606-4.612 4.6 4.6 0 0 1 4.606 4.612zm-40.703 8.141a4.607 4.607 0 1 1 -4.606-4.612 4.6 4.6 0 0 1 4.606 4.612zm73.266 0a4.607 4.607 0 1 1 -4.606-4.612 4.6 4.6 0 0 1 4.606 4.612z"/><path d="m94.416 416.964a4.607 4.607 0 1 1 -4.606-4.612 4.6 4.6 0 0 1 4.606 4.612zm48.844 26.457a4.607 4.607 0 1 1 -4.606-4.612 4.6 4.6 0 0 1 4.606 4.612zm-16.281-18.316a4.607 4.607 0 1 1 -4.606-4.612 4.6 4.6 0 0 1 4.606 4.612z"/><path d="m143.26 443.421a4.607 4.607 0 1 1 -4.606-4.612 4.6 4.6 0 0 1 4.606 4.612zm113.969 2.035a4.607 4.607 0 1 1 -4.606-4.612 4.6 4.6 0 0 1 4.606 4.612zm46.808-6.105a4.607 4.607 0 1 1 -4.606-4.612 4.6 4.6 0 0 1 4.606 4.612z"/><path d="m257.229 445.456a4.607 4.607 0 1 1 -4.606-4.612 4.6 4.6 0 0 1 4.606 4.612zm46.808-6.105a4.607 4.607 0 1 1 -4.606-4.612 4.6 4.6 0 0 1 4.606 4.612z"/><path d="m304.037 439.351a4.607 4.607 0 1 1 -4.606-4.612 4.6 4.6 0 0 1 4.606 4.612z"/><path d="m304.037 439.351a4.607 4.607 0 1 1 -4.606-4.612 4.6 4.6 0 0 1 4.606 4.612zm-16.281-42.738a4.607 4.607 0 1 1 -4.606-4.612 4.6 4.6 0 0 1 4.606 4.612zm-30.527 48.843a4.607 4.607 0 1 1 -4.606-4.612 4.6 4.6 0 0 1 4.606 4.612zm-8.141-46.808a4.607 4.607 0 1 1 -4.606-4.612 4.6 4.6 0 0 1 4.606 4.612z"/><path d="m287.756 396.613a4.607 4.607 0 1 1 -4.606-4.612 4.6 4.6 0 0 1 4.606 4.612zm2.035-22.387a4.607 4.607 0 1 1 -4.606-4.612 4.6 4.6 0 0 1 4.606 4.612zm-40.703 24.422a4.607 4.607 0 1 1 -4.606-4.612 4.6 4.6 0 0 1 4.606 4.612z"/><path d="m287.756 396.613a4.607 4.607 0 1 1 -4.606-4.612 4.6 4.6 0 0 1 4.606 4.612zm16.281 42.738a4.607 4.607 0 1 1 -4.606-4.612 4.6 4.6 0 0 1 4.606 4.612zm-46.808 6.105a4.607 4.607 0 1 1 -4.606-4.612 4.6 4.6 0 0 1 4.606 4.612z"/><path d="m287.756 396.613a4.607 4.607 0 1 1 -4.606-4.612 4.6 4.6 0 0 1 4.606 4.612zm2.035-22.387a4.607 4.607 0 1 1 -4.606-4.612 4.6 4.6 0 0 1 4.606 4.612z"/><path d="m287.756 396.613a4.607 4.607 0 1 1 -4.606-4.612 4.6 4.6 0 0 1 4.606 4.612zm16.281 42.738a4.607 4.607 0 1 1 -4.606-4.612 4.6 4.6 0 0 1 4.606 4.612z"/><path d="m287.756 396.613a4.607 4.607 0 1 1 -4.606-4.612 4.6 4.6 0 0 1 4.606 4.612z"/><path d="m287.756 396.613a4.607 4.607 0 1 1 -4.606-4.612 4.6 4.6 0 0 1 4.606 4.612zm4.07-118.04a4.607 4.607 0 1 1 -4.606-4.612 4.6 4.6 0 0 1 4.606 4.612zm16.282 32.563a4.607 4.607 0 1 1 -4.606-4.612 4.6 4.6 0 0 1 4.606 4.612zm-28.493 22.387a4.607 4.607 0 1 1 -4.606-4.612 4.6 4.6 0 0 1 4.606 4.612z"/><path d="m291.826 278.573a4.607 4.607 0 1 1 -4.606-4.612 4.6 4.6 0 0 1 4.606 4.612zm16.282 32.563a4.607 4.607 0 1 1 -4.606-4.612 4.6 4.6 0 0 1 4.606 4.612zm-10.176-73.266a4.607 4.607 0 1 1 -4.606-4.612 4.6 4.6 0 0 1 4.606 4.612z"/><path d="m291.826 278.573a4.607 4.607 0 1 1 -4.606-4.612 4.6 4.6 0 0 1 4.606 4.612zm6.106-40.703a4.607 4.607 0 1 1 -4.606-4.612 4.6 4.6 0 0 1 4.606 4.612zm6.105-22.387a4.607 4.607 0 1 1 -4.606-4.612 4.6 4.6 0 0 1 4.606 4.612zm-28.492-10.175a4.607 4.607 0 1 1 -4.606-4.612 4.6 4.6 0 0 1 4.606 4.612z"/><path d="m304.037 215.483a4.607 4.607 0 1 1 -4.606-4.612 4.6 4.6 0 0 1 4.606 4.612zm-32.562-28.498a4.607 4.607 0 1 1 -4.606-4.61 4.6 4.6 0 0 1 4.606 4.61zm4.07 18.323a4.607 4.607 0 1 1 -4.606-4.612 4.6 4.6 0 0 1 4.606 4.612z"/><path d="m304.037 215.483a4.607 4.607 0 1 1 -4.606-4.612 4.6 4.6 0 0 1 4.606 4.612zm-6.105 22.387a4.607 4.607 0 1 1 -4.606-4.612 4.6 4.6 0 0 1 4.606 4.612zm-101.758-28.492a4.607 4.607 0 1 1 -4.606-4.612 4.6 4.6 0 0 1 4.606 4.612zm16.281 24.422a4.607 4.607 0 1 1 -4.606-4.612 4.6 4.6 0 0 1 4.606 4.612zm-28.492-2.035a4.607 4.607 0 1 1 -4.605-4.612 4.6 4.6 0 0 1 4.605 4.612zm-20.351-8.141a4.607 4.607 0 1 1 -4.606-4.612 4.6 4.6 0 0 1 4.606 4.612z"/><path d="m183.963 231.765a4.607 4.607 0 1 1 -4.605-4.612 4.6 4.6 0 0 1 4.605 4.612zm-26.457 18.316a4.607 4.607 0 1 1 -4.606-4.612 4.6 4.6 0 0 1 4.606 4.612zm6.106-26.457a4.607 4.607 0 1 1 -4.606-4.612 4.6 4.6 0 0 1 4.606 4.612zm32.562-14.246a4.607 4.607 0 1 1 -4.606-4.612 4.6 4.6 0 0 1 4.606 4.612z"/><path d="m183.963 231.765a4.607 4.607 0 1 1 -4.605-4.612 4.6 4.6 0 0 1 4.605 4.612zm-46.809 34.597a4.607 4.607 0 1 1 -4.606-4.612 4.6 4.6 0 0 1 4.606 4.612zm20.352-16.281a4.607 4.607 0 1 1 -4.606-4.612 4.6 4.6 0 0 1 4.606 4.612zm0 36.633a4.607 4.607 0 1 1 -4.606-4.612 4.6 4.6 0 0 1 4.606 4.612zm-30.527-59.02a4.607 4.607 0 1 1 -4.606-4.612 4.6 4.6 0 0 1 4.606 4.612zm18.316-48.849a4.607 4.607 0 1 1 -4.606-4.61 4.6 4.6 0 0 1 4.606 4.61zm-44.773 26.463a4.607 4.607 0 1 1 -4.606-4.612 4.6 4.6 0 0 1 4.606 4.612z"/><path d="m126.979 227.694a4.607 4.607 0 1 1 -4.606-4.612 4.6 4.6 0 0 1 4.606 4.612zm30.527 22.387a4.607 4.607 0 1 1 -4.606-4.612 4.6 4.6 0 0 1 4.606 4.612zm-20.352 16.281a4.607 4.607 0 1 1 -4.606-4.612 4.6 4.6 0 0 1 4.606 4.612z"/><path d="m126.979 227.694a4.607 4.607 0 1 1 -4.606-4.612 4.6 4.6 0 0 1 4.606 4.612zm36.633-4.07a4.607 4.607 0 1 1 -4.606-4.612 4.6 4.6 0 0 1 4.606 4.612zm-6.106 26.457a4.607 4.607 0 1 1 -4.606-4.612 4.6 4.6 0 0 1 4.606 4.612zm-71.23-26.457a4.607 4.607 0 1 1 -4.606-4.612 4.6 4.6 0 0 1 4.606 4.612z"/><path d="m126.979 227.694a4.607 4.607 0 1 1 -4.606-4.612 4.6 4.6 0 0 1 4.606 4.612zm-26.457-22.386a4.607 4.607 0 1 1 -4.606-4.612 4.6 4.6 0 0 1 4.606 4.612zm54.949-10.182a4.607 4.607 0 1 1 -4.606-4.61 4.6 4.6 0 0 1 4.606 4.61zm-10.176-16.281a4.607 4.607 0 1 1 -4.606-4.61 4.6 4.6 0 0 1 4.606 4.61z"/><path d="m126.979 227.694a4.607 4.607 0 1 1 -4.606-4.612 4.6 4.6 0 0 1 4.606 4.612zm28.492-32.568a4.607 4.607 0 1 1 -4.606-4.61 4.6 4.6 0 0 1 4.606 4.61zm8.141 28.498a4.607 4.607 0 1 1 -4.606-4.612 4.6 4.6 0 0 1 4.606 4.612z"/><path d="m126.979 227.694a4.607 4.607 0 1 1 -4.606-4.612 4.6 4.6 0 0 1 4.606 4.612zm87.511-40.709a4.607 4.607 0 1 1 -4.606-4.61 4.6 4.6 0 0 1 4.606 4.61zm8.141-14.246a4.607 4.607 0 1 1 -4.606-4.61 4.6 4.6 0 0 1 4.606 4.61zm-30.527-2.035a4.607 4.607 0 1 1 -4.606-4.61 4.6 4.6 0 0 1 4.606 4.61zm-73.266 109.905a4.607 4.607 0 1 1 -4.606-4.612 4.6 4.6 0 0 1 4.606 4.612zm-32.562 14.246a4.607 4.607 0 1 1 -4.606-4.612 4.6 4.6 0 0 1 4.606 4.612zm-8.141-42.739a4.607 4.607 0 1 1 -4.606-4.612 4.6 4.6 0 0 1 4.606 4.612z"/><path d="m118.838 280.609a4.607 4.607 0 1 1 -4.606-4.612 4.6 4.6 0 0 1 4.606 4.612zm-16.281 61.054a4.607 4.607 0 1 1 -4.606-4.612 4.6 4.6 0 0 1 4.606 4.612zm-16.281-46.808a4.607 4.607 0 1 1 -4.606-4.612 4.6 4.6 0 0 1 4.606 4.612z"/><path d="m118.838 280.609a4.607 4.607 0 1 1 -4.606-4.612 4.6 4.6 0 0 1 4.606 4.612zm38.668 6.105a4.607 4.607 0 1 1 -4.606-4.612 4.6 4.6 0 0 1 4.606 4.612zm-54.949 54.949a4.607 4.607 0 1 1 -4.606-4.612 4.6 4.6 0 0 1 4.606 4.612z"/><path d="m118.838 280.609a4.607 4.607 0 1 1 -4.606-4.612 4.6 4.6 0 0 1 4.606 4.612zm38.668 6.105a4.607 4.607 0 1 1 -4.606-4.612 4.6 4.6 0 0 1 4.606 4.612zm-20.352-20.352a4.607 4.607 0 1 1 -4.606-4.612 4.6 4.6 0 0 1 4.606 4.612zm-24.421-20.351a4.607 4.607 0 1 1 -4.606-4.612 4.6 4.6 0 0 1 4.606 4.612zm-26.457-22.387a4.607 4.607 0 1 1 -4.606-4.612 4.6 4.6 0 0 1 4.606 4.612zm-8.141 28.492a4.607 4.607 0 1 1 -4.606-4.612 4.6 4.6 0 0 1 4.606 4.612z"/><path d="m112.733 246.011a4.607 4.607 0 1 1 -4.606-4.612 4.6 4.6 0 0 1 4.606 4.612zm6.105 34.598a4.607 4.607 0 1 1 -4.606-4.612 4.6 4.6 0 0 1 4.606 4.612zm-40.703-28.493a4.607 4.607 0 1 1 -4.606-4.612 4.6 4.6 0 0 1 4.606 4.612z"/><path d="m112.733 246.011a4.607 4.607 0 1 1 -4.606-4.612 4.6 4.6 0 0 1 4.606 4.612zm14.246-18.317a4.607 4.607 0 1 1 -4.606-4.612 4.6 4.6 0 0 1 4.606 4.612zm-40.703-4.07a4.607 4.607 0 1 1 -4.606-4.612 4.6 4.6 0 0 1 4.606 4.612z"/><path d="m112.733 246.011a4.607 4.607 0 1 1 -4.606-4.612 4.6 4.6 0 0 1 4.606 4.612zm24.421 20.351a4.607 4.607 0 1 1 -4.606-4.612 4.6 4.6 0 0 1 4.606 4.612zm-18.316 14.247a4.607 4.607 0 1 1 -4.606-4.612 4.6 4.6 0 0 1 4.606 4.612z"/><path d="m112.733 246.011a4.607 4.607 0 1 1 -4.606-4.612 4.6 4.6 0 0 1 4.606 4.612zm24.421 20.351a4.607 4.607 0 1 1 -4.606-4.612 4.6 4.6 0 0 1 4.606 4.612zm-10.175-38.668a4.607 4.607 0 1 1 -4.606-4.612 4.6 4.6 0 0 1 4.606 4.612zm138.39 0a4.607 4.607 0 1 1 -4.606-4.612 4.6 4.6 0 0 1 4.606 4.612zm32.563 10.176a4.607 4.607 0 1 1 -4.606-4.612 4.6 4.6 0 0 1 4.606 4.612zm-22.387-32.562a4.607 4.607 0 1 1 -4.606-4.612 4.6 4.6 0 0 1 4.606 4.612zm-16.281 67.16a4.607 4.607 0 1 1 -4.606-4.612 4.6 4.6 0 0 1 4.606 4.612zm-16.281 8.141a4.607 4.607 0 1 1 -4.606-4.612 4.6 4.6 0 0 1 4.606 4.612zm-4.071-24.422a4.607 4.607 0 1 1 -4.606-4.612 4.6 4.6 0 0 1 4.606 4.612z"/><path d="m259.264 272.468a4.607 4.607 0 1 1 -4.606-4.612 4.6 4.6 0 0 1 4.606 4.612zm6.105-44.774a4.607 4.607 0 1 1 -4.606-4.612 4.6 4.6 0 0 1 4.606 4.612zm-26.457 28.493a4.607 4.607 0 1 1 -4.606-4.612 4.6 4.6 0 0 1 4.606 4.612z"/><path d="m259.264 272.468a4.607 4.607 0 1 1 -4.606-4.612 4.6 4.6 0 0 1 4.606 4.612zm38.668-34.598a4.607 4.607 0 1 1 -4.606-4.612 4.6 4.6 0 0 1 4.606 4.612zm-32.563-10.176a4.607 4.607 0 1 1 -4.606-4.612 4.6 4.6 0 0 1 4.606 4.612z"/><path d="m259.264 272.468a4.607 4.607 0 1 1 -4.606-4.612 4.6 4.6 0 0 1 4.606 4.612zm38.668-34.598a4.607 4.607 0 1 1 -4.606-4.612 4.6 4.6 0 0 1 4.606 4.612zm-6.106 40.703a4.607 4.607 0 1 1 -4.606-4.612 4.6 4.6 0 0 1 4.606 4.612zm-65.125-69.195a4.607 4.607 0 1 1 -4.606-4.612 4.6 4.6 0 0 1 4.606 4.612zm-14.246 24.422a4.607 4.607 0 1 1 -4.606-4.612 4.6 4.6 0 0 1 4.606 4.612zm-16.281-24.422a4.607 4.607 0 1 1 -4.606-4.612 4.6 4.6 0 0 1 4.606 4.612z"/><path d="m226.701 209.378a4.607 4.607 0 1 1 -4.606-4.612 4.6 4.6 0 0 1 4.606 4.612zm-12.211-22.393a4.607 4.607 0 1 1 -4.606-4.61 4.6 4.6 0 0 1 4.606 4.61zm-18.316 22.393a4.607 4.607 0 1 1 -4.606-4.612 4.6 4.6 0 0 1 4.606 4.612z"/><path d="m226.701 209.378a4.607 4.607 0 1 1 -4.606-4.612 4.6 4.6 0 0 1 4.606 4.612zm12.211 46.809a4.607 4.607 0 1 1 -4.606-4.612 4.6 4.6 0 0 1 4.606 4.612zm-26.457-22.387a4.607 4.607 0 1 1 -4.606-4.612 4.6 4.6 0 0 1 4.606 4.612z"/><path d="m226.701 209.378a4.607 4.607 0 1 1 -4.606-4.612 4.6 4.6 0 0 1 4.606 4.612zm-4.07-36.639a4.607 4.607 0 1 1 -4.606-4.61 4.6 4.6 0 0 1 4.606 4.61zm-8.141 14.246a4.607 4.607 0 1 1 -4.606-4.61 4.6 4.6 0 0 1 4.606 4.61z"/><path d="m226.701 209.378a4.607 4.607 0 1 1 -4.606-4.612 4.6 4.6 0 0 1 4.606 4.612zm44.774-22.393a4.607 4.607 0 1 1 -4.606-4.61 4.6 4.6 0 0 1 4.606 4.61zm-48.844-14.246a4.607 4.607 0 1 1 -4.606-4.61 4.6 4.6 0 0 1 4.606 4.61z"/><path d="m226.701 209.378a4.607 4.607 0 1 1 -4.606-4.612 4.6 4.6 0 0 1 4.606 4.612zm38.668 18.316a4.607 4.607 0 1 1 -4.606-4.612 4.6 4.6 0 0 1 4.606 4.612zm-26.457 28.493a4.607 4.607 0 1 1 -4.606-4.612 4.6 4.6 0 0 1 4.606 4.612z"/><path d="m226.701 209.378a4.607 4.607 0 1 1 -4.606-4.612 4.6 4.6 0 0 1 4.606 4.612zm48.844-4.07a4.607 4.607 0 1 1 -4.606-4.612 4.6 4.6 0 0 1 4.606 4.612zm-10.176 22.386a4.607 4.607 0 1 1 -4.606-4.612 4.6 4.6 0 0 1 4.606 4.612z"/><path d="m226.701 209.378a4.607 4.607 0 1 1 -4.606-4.612 4.6 4.6 0 0 1 4.606 4.612zm48.844-4.07a4.607 4.607 0 1 1 -4.606-4.612 4.6 4.6 0 0 1 4.606 4.612zm-4.07-18.323a4.607 4.607 0 1 1 -4.606-4.61 4.6 4.6 0 0 1 4.606 4.61zm-87.512 2.035a4.607 4.607 0 1 1 -4.605-4.61 4.6 4.6 0 0 1 4.605 4.61zm-28.492 6.106a4.607 4.607 0 1 1 -4.606-4.61 4.6 4.6 0 0 1 4.606 4.61zm-10.176-16.281a4.607 4.607 0 1 1 -4.606-4.61 4.6 4.6 0 0 1 4.606 4.61z"/><path d="m183.963 189.02a4.607 4.607 0 1 1 -4.605-4.61 4.6 4.6 0 0 1 4.605 4.61zm8.141-18.316a4.607 4.607 0 1 1 -4.606-4.61 4.6 4.6 0 0 1 4.606 4.61zm-46.809 8.141a4.607 4.607 0 1 1 -4.606-4.61 4.6 4.6 0 0 1 4.606 4.61z"/><path d="m183.963 189.02a4.607 4.607 0 1 1 -4.605-4.61 4.6 4.6 0 0 1 4.605 4.61zm-20.351 34.604a4.607 4.607 0 1 1 -4.606-4.612 4.6 4.6 0 0 1 4.606 4.612zm-8.141-28.498a4.607 4.607 0 1 1 -4.606-4.61 4.6 4.6 0 0 1 4.606 4.61z"/><path d="m183.963 189.02a4.607 4.607 0 1 1 -4.605-4.61 4.6 4.6 0 0 1 4.605 4.61zm12.211 20.358a4.607 4.607 0 1 1 -4.606-4.612 4.6 4.6 0 0 1 4.606 4.612zm-32.562 14.246a4.607 4.607 0 1 1 -4.606-4.612 4.6 4.6 0 0 1 4.606 4.612z"/><path d="m183.963 189.02a4.607 4.607 0 1 1 -4.605-4.61 4.6 4.6 0 0 1 4.605 4.61zm30.527-2.035a4.607 4.607 0 1 1 -4.606-4.61 4.6 4.6 0 0 1 4.606 4.61zm-22.386-16.281a4.607 4.607 0 1 1 -4.606-4.61 4.6 4.6 0 0 1 4.606 4.61z"/><path d="m183.963 189.02a4.607 4.607 0 1 1 -4.605-4.61 4.6 4.6 0 0 1 4.605 4.61zm30.527-2.035a4.607 4.607 0 1 1 -4.606-4.61 4.6 4.6 0 0 1 4.606 4.61zm-18.316 22.393a4.607 4.607 0 1 1 -4.606-4.612 4.6 4.6 0 0 1 4.606 4.612zm50.879 154.672a4.607 4.607 0 1 1 -4.606-4.612 4.6 4.6 0 0 1 4.606 4.612zm-26.457 14.246a4.607 4.607 0 1 1 -4.606-4.612 4.6 4.6 0 0 1 4.606 4.612zm-10.176-26.457a4.607 4.607 0 1 1 -4.606-4.612 4.6 4.6 0 0 1 4.606 4.612z"/><path d="m247.053 364.05a4.607 4.607 0 1 1 -4.606-4.612 4.6 4.6 0 0 1 4.606 4.612zm2.035 34.598a4.607 4.607 0 1 1 -4.606-4.612 4.6 4.6 0 0 1 4.606 4.612zm-28.492-20.352a4.607 4.607 0 1 1 -4.606-4.612 4.6 4.6 0 0 1 4.606 4.612z"/><path d="m247.053 364.05a4.607 4.607 0 1 1 -4.606-4.612 4.6 4.6 0 0 1 4.606 4.612zm42.738 10.176a4.607 4.607 0 1 1 -4.606-4.612 4.6 4.6 0 0 1 4.606 4.612zm-40.703 24.422a4.607 4.607 0 1 1 -4.606-4.612 4.6 4.6 0 0 1 4.606 4.612z"/><path d="m247.053 364.05a4.607 4.607 0 1 1 -4.606-4.612 4.6 4.6 0 0 1 4.606 4.612zm42.738 10.176a4.607 4.607 0 1 1 -4.606-4.612 4.6 4.6 0 0 1 4.606 4.612zm-10.176-40.703a4.607 4.607 0 1 1 -4.606-4.612 4.6 4.6 0 0 1 4.606 4.612zm-69.195-8.141a4.607 4.607 0 1 1 -4.606-4.612 4.6 4.6 0 0 1 4.606 4.612zm-30.527-18.316a4.607 4.607 0 1 1 -4.606-4.612 4.6 4.6 0 0 1 4.606 4.612zm-10.176 36.632a4.607 4.607 0 1 1 -4.606-4.612 4.6 4.6 0 0 1 4.606 4.612z"/><path d="m210.42 325.382a4.607 4.607 0 1 1 -4.606-4.612 4.6 4.6 0 0 1 4.606 4.612zm0 26.457a4.607 4.607 0 1 1 -4.606-4.612 4.6 4.6 0 0 1 4.606 4.612zm-40.703-8.141a4.607 4.607 0 1 1 -4.606-4.612 4.6 4.6 0 0 1 4.606 4.612z"/><path d="m210.42 325.382a4.607 4.607 0 1 1 -4.606-4.612 4.6 4.6 0 0 1 4.606 4.612zm4.07-16.281a4.607 4.607 0 1 1 -4.606-4.612 4.6 4.6 0 0 1 4.606 4.612zm-34.597-2.035a4.607 4.607 0 1 1 -4.606-4.612 4.6 4.6 0 0 1 4.606 4.612zm69.195 18.316a4.607 4.607 0 1 1 -4.606-4.612 4.6 4.6 0 0 1 4.606 4.612z"/><path d="m210.42 325.382a4.607 4.607 0 1 1 -4.606-4.612 4.6 4.6 0 0 1 4.606 4.612zm0 26.457a4.607 4.607 0 1 1 -4.606-4.612 4.6 4.6 0 0 1 4.606 4.612zm38.668-26.457a4.607 4.607 0 1 1 -4.606-4.612 4.6 4.6 0 0 1 4.606 4.612zm-34.598-16.281a4.607 4.607 0 1 1 -4.606-4.612 4.6 4.6 0 0 1 4.606 4.612z"/><path d="m210.42 325.382a4.607 4.607 0 1 1 -4.606-4.612 4.6 4.6 0 0 1 4.606 4.612zm38.668 0a4.607 4.607 0 1 1 -4.606-4.612 4.6 4.6 0 0 1 4.606 4.612zm-2.035 38.668a4.607 4.607 0 1 1 -4.606-4.612 4.6 4.6 0 0 1 4.606 4.612zm-36.633-12.211a4.607 4.607 0 1 1 -4.606-4.612 4.6 4.6 0 0 1 4.606 4.612z"/><path d="m249.088 325.382a4.607 4.607 0 1 1 -4.606-4.612 4.6 4.6 0 0 1 4.606 4.612zm-6.105-44.773a4.607 4.607 0 1 1 -4.606-4.612 4.6 4.6 0 0 1 4.606 4.612zm-28.493 28.492a4.607 4.607 0 1 1 -4.606-4.612 4.6 4.6 0 0 1 4.606 4.612z"/><path d="m249.088 325.382a4.607 4.607 0 1 1 -4.606-4.612 4.6 4.6 0 0 1 4.606 4.612zm10.176-52.914a4.607 4.607 0 1 1 -4.606-4.612 4.6 4.6 0 0 1 4.606 4.612zm-16.281 8.141a4.607 4.607 0 1 1 -4.606-4.612 4.6 4.6 0 0 1 4.606 4.612z"/><path d="m249.088 325.382a4.607 4.607 0 1 1 -4.606-4.612 4.6 4.6 0 0 1 4.606 4.612zm30.527 8.141a4.607 4.607 0 1 1 -4.606-4.612 4.6 4.6 0 0 1 4.606 4.612zm-32.562 30.527a4.607 4.607 0 1 1 -4.606-4.612 4.6 4.6 0 0 1 4.606 4.612z"/><path d="m249.088 325.382a4.607 4.607 0 1 1 -4.606-4.612 4.6 4.6 0 0 1 4.606 4.612zm42.738-46.809a4.607 4.607 0 1 1 -4.606-4.612 4.6 4.6 0 0 1 4.606 4.612zm-32.562-6.105a4.607 4.607 0 1 1 -4.606-4.612 4.6 4.6 0 0 1 4.606 4.612z"/><path d="m249.088 325.382a4.607 4.607 0 1 1 -4.606-4.612 4.6 4.6 0 0 1 4.606 4.612zm42.738-46.809a4.607 4.607 0 1 1 -4.606-4.612 4.6 4.6 0 0 1 4.606 4.612zm-12.211 54.95a4.607 4.607 0 1 1 -4.606-4.612 4.6 4.6 0 0 1 4.606 4.612zm-148.566 24.422a4.607 4.607 0 1 1 -4.606-4.612 4.6 4.6 0 0 1 4.606 4.612zm-14.246 30.527a4.607 4.607 0 1 1 -4.606-4.612 4.6 4.6 0 0 1 4.606 4.612zm-14.246-46.809a4.607 4.607 0 1 1 -4.606-4.612 4.6 4.6 0 0 1 4.606 4.612z"/><path d="m131.049 357.945a4.607 4.607 0 1 1 -4.606-4.612 4.6 4.6 0 0 1 4.606 4.612zm26.457-71.231a4.607 4.607 0 1 1 -4.606-4.612 4.6 4.6 0 0 1 4.606 4.612zm-54.949 54.949a4.607 4.607 0 1 1 -4.606-4.612 4.6 4.6 0 0 1 4.606 4.612z"/><path d="m131.049 357.945a4.607 4.607 0 1 1 -4.606-4.612 4.6 4.6 0 0 1 4.606 4.612zm16.281 22.386a4.607 4.607 0 1 1 -4.606-4.612 4.6 4.6 0 0 1 4.606 4.612zm-30.527 8.141a4.607 4.607 0 1 1 -4.606-4.612 4.6 4.6 0 0 1 4.606 4.612z"/><path d="m131.049 357.945a4.607 4.607 0 1 1 -4.606-4.612 4.6 4.6 0 0 1 4.606 4.612zm38.668-14.247a4.607 4.607 0 1 1 -4.606-4.612 4.6 4.6 0 0 1 4.606 4.612zm-22.387 36.633a4.607 4.607 0 1 1 -4.606-4.612 4.6 4.6 0 0 1 4.606 4.612z"/><path d="m131.049 357.945a4.607 4.607 0 1 1 -4.606-4.612 4.6 4.6 0 0 1 4.606 4.612zm38.668-14.247a4.607 4.607 0 1 1 -4.606-4.612 4.6 4.6 0 0 1 4.606 4.612zm-12.211-56.984a4.607 4.607 0 1 1 -4.606-4.612 4.6 4.6 0 0 1 4.606 4.612z"/></g><g stroke="#ff7511"><g stroke-miterlimit="10"><path d="m157.919 118.989-25.506-18.794m-103.368 81.889 24.164 8.055m20.137-52.356-37.588-1.342m-26.85-132.902-1.342 134.244m-4.027 51.013 25.506-6.712m6.712-45.643-28.191 1.342" fill="none"/><path d="m7.566 137.783 1.342-134.24 2.685 69.807zm151.696-84.574 4.027-22.822-26.849 12.082zm-97.998-49.666h52.355l-16.109 20.137zm36.246 20.137 14.767 29.53-29.534-12.082zm-88.601-20.137h52.355l-9.4 21.479zm0 0 2.685 69.807 20.137-26.849z" fill="#fff"/><path d="m8.909 3.543 42.958 21.479-20.137 21.479z" fill="#fff"/><path d="m51.867 25.022 1.342 28.191-21.479-6.712z" fill="#fff"/><path d="m11.594 73.346 20.137-26.845 10.737 24.16z" fill="#fff"/><path d="m31.73 46.501 21.479 6.712-10.74 17.452zm21.479 6.712 2.685 36.246-13.424-18.794zm-41.615 20.133 30.874-2.681-8.055 22.822z" fill="#fff"/><path d="m42.47 70.665 13.419 18.79-21.479 4.027z" fill="#fff"/><path d="m112.277 101.538-14.767-8.055m34.904 6.712-20.137 1.342" fill="none"/><g fill="#fff"><path d="m112.277 101.537 20.137-1.342 4.027 14.767z"/><path d="m132.413 100.199 25.506 18.794-21.479-4.027zm25.511 18.794 13.42 25.5-18.794-6.712zm-5.374 18.794 18.794 6.712-13.42 16.105z"/><path d="m171.344 144.5 1.342 38.931-14.767-22.822z"/><path d="m157.92 160.609 14.767 22.822-17.452 6.712z"/><path d="m161.947 219.672 10.74-36.246-17.452 6.712zm-25.506 28.191 25.506-28.191-17.451-2.681z"/><path d="m155.234 190.143 6.712 29.534-17.452-2.685zm-56.382 69.802 37.588-12.082-16.114-10.735z"/><path d="m136.44 247.863 8.055-30.872-24.164 20.137zm-77.861 8.055 40.273 4.027-9.399-14.762zm-34.903-21.475 34.9 21.479-1.342-16.109zm0-.004 33.561 5.37-18.794-14.763zm-20.137-45.639 5.374 25.5 14.767-6.712z"/><path d="m3.539 188.796 25.506-6.712-5.37 25.506zm5.37 25.506 14.767 20.137v-26.845z"/><path d="m23.676 234.439 14.767-9.4-14.767-17.445zm0-26.851 5.374-25.5 5.37 14.767z"/><path d="m23.676 207.59 14.767 17.452-4.028-28.187zm5.369-25.502 24.164 8.055-18.79 6.708z"/><path d="m34.415 196.855 4.027 28.191 12.082-1.342z"/><path d="m34.415 196.851 18.794-6.708-2.685 33.561zm4.028 28.191 18.794 14.767-6.712-16.105zm14.767-34.899 13.424 17.452-16.109 16.109z"/><path d="m50.525 223.704 6.712 16.109 14.767-6.712zm0-.005 16.109-16.105 5.365 25.5z"/><path d="m57.237 239.809 1.342 16.109 13.425-22.817z"/><path d="m58.579 255.918 30.876-10.74-17.452-12.077zm8.055-48.324 24.164 2.685-18.79 22.815z"/><path d="m72.004 233.101 17.452 12.082 8.055-12.082zm0-.005 18.794-22.817 6.712 22.822z"/><path d="m89.455 245.179 9.4 14.767-1.345-26.845z"/><path d="m98.852 259.946 21.479-22.822-22.821-4.023zm-8.054-49.667 6.712 22.822 24.162-14.771z"/><path d="m90.798 210.275 18.794-10.735 12.08 18.79zm6.712 22.822 22.822 4.027 1.342-18.79z"/><path d="m120.331 237.124 24.164-20.133-22.822 1.342zm-10.739-37.589 10.74-28.191 20.134 25.504zm0 .001 12.082 18.794 18.792-21.475zm12.082 18.794 22.822-1.342-4.028-20.133z"/><path d="m144.495 216.988 10.74-26.849-14.767 6.712zm-24.164-45.64 20.137 25.5 4.027-21.479zm20.137 25.503 14.767-6.712-10.74-14.763z"/><path d="m155.234 190.139 2.685-29.53-13.424 14.767zm-34.903-18.795 24.164 4.027v-22.817zm24.164 4.027 13.424-14.767-13.424-8.05z"/><path d="m152.55 137.787 5.37 22.821-13.424-8.055zm-16.11-22.821 21.479 4.027-25.506 6.712zm8.055 37.584 8.055-14.767-20.137-12.078z"/><path d="m152.55 137.783 5.37-18.794-25.506 6.712zm-79.204 0 34.9 6.712-16.106-18.79zm-37.588-1.342 37.588 1.342-17.451-10.735zm-28.192 1.342 28.191-1.342-17.452-14.763zm0 0 4.027-64.437 9.4 37.588z"/><path d="m7.566 137.783 10.74-16.109 2.685-10.74z"/><path d="m11.594 73.35 22.821 20.137-13.424 17.452z"/><path d="m18.306 121.673 2.685-10.74 24.164 1.342zm0 .001 17.452 14.767 9.4-24.164z"/><path d="m20.991 110.935 13.424-17.448 10.74 18.794z"/><path d="m34.415 93.482 21.474-4.023-10.74 22.822zm1.343 42.959 20.137-9.4-10.74-14.76zm20.136-46.982 9.4 9.4-20.137 13.424zm17.452 48.324 18.794-12.082-22.822-9.4z"/><path d="m92.14 125.702 5.37-32.219-28.191 22.822zm-46.985-13.421 10.74 14.767 13.424-10.74zm0-.005 20.137-13.42 4.027 17.452z"/><path d="m55.894 127.043 17.452 10.74-4.028-21.475zm9.397-28.19 32.219-5.37-28.191 22.822zm26.849 26.849 5.374-32.215 8.05 25.5z"/><path d="m92.14 125.701 16.109 18.792-2.685-25.5zm5.37-32.214 14.767 8.055-6.712 17.445zm10.74 51.006 24.164-18.794-26.849-6.706z"/><path d="m112.277 101.541 24.162 13.42-30.876 4.027zm20.137 24.16 4.025-10.735-30.876 4.027zm-24.164 18.799 12.082 26.849 2.685-25.506zm0-.005 24.164-18.79-9.4 20.137z"/><path d="m120.331 171.342 24.164-18.794-21.479-6.706z"/><path d="m132.413 125.705 12.082 26.849-21.479-6.712zm-49.67-84.577 14.767-17.448-26.849 6.712zm-30.876-16.106 1.342 28.191 17.452-22.822zm0-.004 9.4-21.479 9.4 26.849z"/><path d="m61.264 3.543 36.246 20.137-26.849 6.712zm36.246 20.137 14.767 29.534 16.107-25.511zm0-.004 16.109-20.133 14.765 24.16z"/><path d="m112.277 53.207 24.164-10.74-8.055-14.76zm1.342-49.664 14.767 24.164 20.137-8.055z"/><path d="m113.619 3.543 46.985 1.342-12.082 14.767zm14.767 24.16 8.055 14.767 12.082-22.818z"/><path d="m136.441 42.469 26.849-12.082-14.767-10.735z"/><path d="m160.605 4.886 2.685 25.506-14.767-10.74z"/></g><path d="m132.414 51.867-20.137 1.342" fill="none"/><path d="m112.277 53.209 24.164-10.735-4.027 9.4z" fill="#fff"/><path d="m159.262 53.209-26.849-1.342" fill="none"/><path d="m136.44 42.474 22.822 10.74-26.849-1.342zm-65.779-12.082 12.082 10.74-9.4 10.74z" fill="#fff"/><path d="m82.743 41.131 29.534 12.082-38.931-1.342z" fill="#fff"/><path d="m112.277 53.209-38.931-1.342" fill="none"/><path d="m53.209 53.209 17.452-22.817 2.685 21.479z" fill="#fff"/><path d="m55.894 89.455 9.397 9.397m0 .001 32.219-5.37m1.342 166.462 37.588-12.082m.001 0 25.506-28.191m0 0 10.74-36.246m-1.343-38.931 1.342 38.931m-14.766-64.437 13.424 25.506m-12.082-91.285 4.027-22.822m-2.684-25.507 2.685 25.506" fill="none"/></g><g fill="#fff"><path d="m135.451 100.197a3.039 3.039 0 1 1 -3.039-3.041 3.038 3.038 0 0 1 3.039 3.041zm25.507 18.794a3.039 3.039 0 1 1 -3.039-3.041 3.038 3.038 0 0 1 3.039 3.041zm1.342-65.78a3.039 3.039 0 1 1 -3.039-3.041 3.038 3.038 0 0 1 3.039 3.041zm-85.916 84.574a3.039 3.039 0 1 1 -3.039-3.041 3.038 3.038 0 0 1 3.039 3.041zm46.985 33.561a3.039 3.039 0 1 1 -3.039-3.041 3.038 3.038 0 0 1 3.039 3.041zm-67.122 18.794a3.039 3.039 0 1 1 -3.039-3.041 3.038 3.038 0 0 1 3.039 3.041zm-17.451-53.697a3.039 3.039 0 1 1 -3.039-3.041 3.038 3.038 0 0 1 3.039 3.041z"/><path d="m56.247 190.14a3.039 3.039 0 1 1 -3.039-3.041 3.038 3.038 0 0 1 3.039 3.041zm-24.164-8.054a3.039 3.039 0 1 1 -3.039-3.041 3.038 3.038 0 0 1 3.039 3.041zm6.713-45.643a3.039 3.039 0 1 1 -3.039-3.041 3.038 3.038 0 0 1 3.039 3.041zm37.588 1.342a3.039 3.039 0 1 1 -3.039-3.041 3.038 3.038 0 0 1 3.039 3.041z"/><path d="m56.247 190.14a3.039 3.039 0 1 1 -3.039-3.041 3.038 3.038 0 0 1 3.039 3.041zm-45.643-52.355a3.039 3.039 0 1 1 -3.039-3.041 3.038 3.038 0 0 1 3.039 3.041zm1.343-134.244a3.039 3.039 0 1 1 -3.039-3.041 3.038 3.038 0 0 1 3.039 3.041zm-5.37 185.257a3.039 3.039 0 1 1 -3.039-3.041 3.038 3.038 0 0 1 3.039 3.041z"/><path d="m10.604 137.785a3.039 3.039 0 1 1 -3.039-3.041 3.038 3.038 0 0 1 3.039 3.041zm21.479 44.301a3.039 3.039 0 1 1 -3.039-3.041 3.038 3.038 0 0 1 3.039 3.041zm-25.506 6.712a3.039 3.039 0 1 1 -3.039-3.041 3.038 3.038 0 0 1 3.039 3.041z"/><path d="m10.604 137.785a3.039 3.039 0 1 1 -3.039-3.041 3.038 3.038 0 0 1 3.039 3.041zm28.192-1.342a3.039 3.039 0 1 1 -3.039-3.041 3.038 3.038 0 0 1 3.039 3.041zm-6.713 45.643a3.039 3.039 0 1 1 -3.039-3.041 3.038 3.038 0 0 1 3.039 3.041zm-17.451-108.738a3.039 3.039 0 1 1 -3.039-3.041 3.038 3.038 0 0 1 3.039 3.041zm-2.685-69.807a3.039 3.039 0 1 1 -3.039-3.041 3.038 3.038 0 0 1 3.039 3.041z"/><path d="m10.604 137.785a3.039 3.039 0 1 1 -3.039-3.041 3.038 3.038 0 0 1 3.039 3.041zm128.875-95.313a3.039 3.039 0 1 1 -3.039-3.041 3.038 3.038 0 0 1 3.039 3.041zm22.821 10.739a3.039 3.039 0 1 1 -3.039-3.041 3.038 3.038 0 0 1 3.039 3.041zm-61.752-29.533a3.039 3.039 0 1 1 -3.039-3.041 3.038 3.038 0 0 1 3.039 3.041zm16.109-20.137a3.039 3.039 0 1 1 -3.039-3.041 3.038 3.038 0 0 1 3.039 3.041zm-52.355 0a3.039 3.039 0 1 1 -3.039-3.041 3.038 3.038 0 0 1 3.039 3.041zm21.479 37.588a3.039 3.039 0 1 1 -3.039-3.041 3.038 3.038 0 0 1 3.039 3.041zm29.534 12.082a3.039 3.039 0 1 1 -3.039-3.041 3.038 3.038 0 0 1 3.039 3.041z"/><path d="m100.548 23.678a3.039 3.039 0 1 1 -3.039-3.041 3.038 3.038 0 0 1 3.039 3.041zm-45.643 1.342a3.039 3.039 0 1 1 -3.039-3.041 3.038 3.038 0 0 1 3.039 3.041zm9.397-21.479a3.039 3.039 0 1 1 -3.039-3.041 3.038 3.038 0 0 1 3.039 3.041zm-52.355 0a3.039 3.039 0 1 1 -3.039-3.041 3.038 3.038 0 0 1 3.039 3.041zm22.821 42.958a3.039 3.039 0 1 1 -3.039-3.041 3.038 3.038 0 0 1 3.039 3.041zm-20.136 26.849a3.039 3.039 0 1 1 -3.039-3.041 3.038 3.038 0 0 1 3.039 3.041z"/><path d="m11.947 3.541a3.039 3.039 0 1 1 -3.039-3.041 3.038 3.038 0 0 1 3.039 3.041zm22.821 42.958a3.039 3.039 0 1 1 -3.039-3.041 3.038 3.038 0 0 1 3.039 3.041zm20.137-21.479a3.039 3.039 0 1 1 -3.039-3.041 3.038 3.038 0 0 1 3.039 3.041z"/><path d="m11.947 3.541a3.039 3.039 0 1 1 -3.039-3.041 3.038 3.038 0 0 1 3.039 3.041zm22.821 42.958a3.039 3.039 0 1 1 -3.039-3.041 3.038 3.038 0 0 1 3.039 3.041zm21.479 6.712a3.039 3.039 0 1 1 -3.039-3.041 3.038 3.038 0 0 1 3.039 3.041zm-1.342-28.191a3.039 3.039 0 1 1 -3.039-3.041 3.038 3.038 0 0 1 3.039 3.041zm-9.397 45.643a3.039 3.039 0 1 1 -3.039-3.041 3.038 3.038 0 0 1 3.039 3.041z"/><path d="m34.768 46.499a3.039 3.039 0 1 1 -3.039-3.041 3.038 3.038 0 0 1 3.039 3.041zm-20.136 26.849a3.039 3.039 0 1 1 -3.039-3.041 3.038 3.038 0 0 1 3.039 3.041zm30.876-2.685a3.039 3.039 0 1 1 -3.039-3.041 3.038 3.038 0 0 1 3.039 3.041zm10.739-17.452a3.039 3.039 0 1 1 -3.039-3.041 3.038 3.038 0 0 1 3.039 3.041z"/><path d="m34.768 46.499a3.039 3.039 0 1 1 -3.039-3.041 3.038 3.038 0 0 1 3.039 3.041zm10.74 24.164a3.039 3.039 0 1 1 -3.039-3.041 3.038 3.038 0 0 1 3.039 3.041zm13.424 18.794a3.039 3.039 0 1 1 -3.039-3.041 3.038 3.038 0 0 1 3.039 3.041zm-2.685-36.246a3.039 3.039 0 1 1 -3.039-3.041 3.038 3.038 0 0 1 3.039 3.041zm-18.794 40.274a3.039 3.039 0 1 1 -3.039-3.041 3.038 3.038 0 0 1 3.039 3.041z"/><path d="m45.508 70.663a3.039 3.039 0 1 1 -3.039-3.041 3.038 3.038 0 0 1 3.039 3.041zm-30.876 2.685a3.039 3.039 0 1 1 -3.039-3.041 3.038 3.038 0 0 1 3.039 3.041zm22.821 20.137a3.039 3.039 0 1 1 -3.039-3.041 3.038 3.038 0 0 1 3.039 3.041zm21.479-4.028a3.039 3.039 0 1 1 -3.039-3.041 3.038 3.038 0 0 1 3.039 3.041z"/><path d="m45.508 70.663a3.039 3.039 0 1 1 -3.039-3.041 3.038 3.038 0 0 1 3.039 3.041zm55.04 22.822a3.039 3.039 0 1 1 -3.039-3.041 3.038 3.038 0 0 1 3.039 3.041zm14.767 8.054a3.039 3.039 0 1 1 -3.039-3.041 3.038 3.038 0 0 1 3.039 3.041zm0-48.328a3.039 3.039 0 1 1 -3.039-3.041 3.038 3.038 0 0 1 3.039 3.041z"/><path d="m115.315 101.539a3.039 3.039 0 1 1 -3.039-3.041 3.038 3.038 0 0 1 3.039 3.041zm20.136-1.342a3.039 3.039 0 1 1 -3.039-3.041 3.038 3.038 0 0 1 3.039 3.041zm-20.136-46.986a3.039 3.039 0 1 1 -3.039-3.041 3.038 3.038 0 0 1 3.039 3.041zm24.164 61.753a3.039 3.039 0 1 1 -3.039-3.041 3.038 3.038 0 0 1 3.039 3.041z"/><path d="m135.451 100.197a3.039 3.039 0 1 1 -3.039-3.041 3.038 3.038 0 0 1 3.039 3.041zm-20.136 1.342a3.039 3.039 0 1 1 -3.039-3.041 3.038 3.038 0 0 1 3.039 3.041zm24.164 13.425a3.039 3.039 0 1 1 -3.039-3.041 3.038 3.038 0 0 1 3.039 3.041zm21.479 4.027a3.039 3.039 0 1 1 -3.039-3.041 3.038 3.038 0 0 1 3.039 3.041z"/><path d="m135.451 100.197a3.039 3.039 0 1 1 -3.039-3.041 3.038 3.038 0 0 1 3.039 3.041zm20.137 37.588a3.039 3.039 0 1 1 -3.039-3.041 3.038 3.038 0 0 1 3.039 3.041zm5.37-18.794a3.039 3.039 0 1 1 -3.039-3.041 3.038 3.038 0 0 1 3.039 3.041zm0 41.616a3.039 3.039 0 1 1 -3.039-3.041 3.038 3.038 0 0 1 3.039 3.041z"/><path d="m155.588 137.785a3.039 3.039 0 1 1 -3.039-3.041 3.038 3.038 0 0 1 3.039 3.041zm5.37 22.822a3.039 3.039 0 1 1 -3.039-3.041 3.038 3.038 0 0 1 3.039 3.041zm-2.685 29.533a3.039 3.039 0 1 1 -3.039-3.041 3.038 3.038 0 0 1 3.039 3.041z"/><path d="m160.958 160.607a3.039 3.039 0 1 1 -3.039-3.041 3.038 3.038 0 0 1 3.039 3.041zm-2.685 29.533a3.039 3.039 0 1 1 -3.039-3.041 3.038 3.038 0 0 1 3.039 3.041zm-10.74 26.849a3.039 3.039 0 1 1 -3.039-3.041 3.038 3.038 0 0 1 3.039 3.041zm-8.054 30.876a3.039 3.039 0 1 1 -3.039-3.041 3.038 3.038 0 0 1 3.039 3.041z"/><path d="m147.533 216.989a3.039 3.039 0 1 1 -3.039-3.041 3.038 3.038 0 0 1 3.039 3.041zm10.74-26.849a3.039 3.039 0 1 1 -3.039-3.041 3.038 3.038 0 0 1 3.039 3.041zm-34.904 46.986a3.039 3.039 0 1 1 -3.039-3.041 3.038 3.038 0 0 1 3.039 3.041zm16.11 10.739a3.039 3.039 0 1 1 -3.039-3.041 3.038 3.038 0 0 1 3.039 3.041zm-37.589 12.082a3.039 3.039 0 1 1 -3.039-3.041 3.038 3.038 0 0 1 3.039 3.041z"/><path d="m123.369 237.126a3.039 3.039 0 1 1 -3.039-3.041 3.038 3.038 0 0 1 3.039 3.041zm24.164-20.137a3.039 3.039 0 1 1 -3.039-3.041 3.038 3.038 0 0 1 3.039 3.041zm-8.054 30.876a3.039 3.039 0 1 1 -3.039-3.041 3.038 3.038 0 0 1 3.039 3.041zm-46.986-2.684a3.039 3.039 0 1 1 -3.039-3.041 3.038 3.038 0 0 1 3.039 3.041zm9.397 14.766a3.039 3.039 0 1 1 -3.039-3.041 3.038 3.038 0 0 1 3.039 3.041zm-40.273-4.027a3.039 3.039 0 1 1 -3.039-3.041 3.038 3.038 0 0 1 3.039 3.041zm-1.342-16.109a3.039 3.039 0 1 1 -3.039-3.041 3.038 3.038 0 0 1 3.039 3.041z"/><path d="m61.617 255.92a3.039 3.039 0 1 1 -3.039-3.041 3.038 3.038 0 0 1 3.039 3.041zm-34.903-21.479a3.039 3.039 0 1 1 -3.039-3.041 3.038 3.038 0 0 1 3.039 3.041zm14.766-9.397a3.039 3.039 0 1 1 -3.039-3.041 3.038 3.038 0 0 1 3.039 3.041zm18.795 14.767a3.039 3.039 0 1 1 -3.039-3.041 3.038 3.038 0 0 1 3.039 3.041z"/><path d="m26.714 234.441a3.039 3.039 0 1 1 -3.039-3.041 3.038 3.038 0 0 1 3.039 3.041zm0-26.849a3.039 3.039 0 1 1 -3.039-3.041 3.038 3.038 0 0 1 3.039 3.041zm-14.767 6.712a3.039 3.039 0 1 1 -3.039-3.041 3.038 3.038 0 0 1 3.039 3.041zm-5.37-25.506a3.039 3.039 0 1 1 -3.039-3.041 3.038 3.038 0 0 1 3.039 3.041z"/><path d="m26.714 207.592a3.039 3.039 0 1 1 -3.039-3.041 3.038 3.038 0 0 1 3.039 3.041zm5.369-25.506a3.039 3.039 0 1 1 -3.039-3.041 3.038 3.038 0 0 1 3.039 3.041zm-25.506 6.712a3.039 3.039 0 1 1 -3.039-3.041 3.038 3.038 0 0 1 3.039 3.041z"/><path d="m26.714 207.592a3.039 3.039 0 1 1 -3.039-3.041 3.038 3.038 0 0 1 3.039 3.041zm0 26.849a3.039 3.039 0 1 1 -3.039-3.041 3.038 3.038 0 0 1 3.039 3.041zm-14.767-20.137a3.039 3.039 0 1 1 -3.039-3.041 3.038 3.038 0 0 1 3.039 3.041z"/><path d="m26.714 207.592a3.039 3.039 0 1 1 -3.039-3.041 3.038 3.038 0 0 1 3.039 3.041zm14.766 17.452a3.039 3.039 0 1 1 -3.039-3.041 3.038 3.038 0 0 1 3.039 3.041zm-14.766 9.397a3.039 3.039 0 1 1 -3.039-3.041 3.038 3.038 0 0 1 3.039 3.041zm10.739-37.588a3.039 3.039 0 1 1 -3.039-3.041 3.038 3.038 0 0 1 3.039 3.041zm-5.37-14.767a3.039 3.039 0 1 1 -3.039-3.041 3.038 3.038 0 0 1 3.039 3.041z"/><path d="m26.714 207.592a3.039 3.039 0 1 1 -3.039-3.041 3.038 3.038 0 0 1 3.039 3.041zm10.739-10.739a3.039 3.039 0 1 1 -3.039-3.041 3.038 3.038 0 0 1 3.039 3.041zm4.027 28.191a3.039 3.039 0 1 1 -3.039-3.041 3.038 3.038 0 0 1 3.039 3.041z"/><path d="m26.714 207.592a3.039 3.039 0 1 1 -3.039-3.041 3.038 3.038 0 0 1 3.039 3.041zm10.739-10.739a3.039 3.039 0 1 1 -3.039-3.041 3.038 3.038 0 0 1 3.039 3.041zm18.794-6.713a3.039 3.039 0 1 1 -3.039-3.041 3.038 3.038 0 0 1 3.039 3.041zm-24.164-8.054a3.039 3.039 0 1 1 -3.039-3.041 3.038 3.038 0 0 1 3.039 3.041zm21.479 41.615a3.039 3.039 0 1 1 -3.039-3.041 3.038 3.038 0 0 1 3.039 3.041zm-12.082 1.343a3.039 3.039 0 1 1 -3.039-3.041 3.038 3.038 0 0 1 3.039 3.041z"/><path d="m37.453 196.853a3.039 3.039 0 1 1 -3.039-3.041 3.038 3.038 0 0 1 3.039 3.041zm16.109 26.848a3.039 3.039 0 1 1 -3.039-3.041 3.038 3.038 0 0 1 3.039 3.041zm2.685-33.561a3.039 3.039 0 1 1 -3.039-3.041 3.038 3.038 0 0 1 3.039 3.041z"/><path d="m37.453 196.853a3.039 3.039 0 1 1 -3.039-3.041 3.038 3.038 0 0 1 3.039 3.041zm16.109 26.848a3.039 3.039 0 1 1 -3.039-3.041 3.038 3.038 0 0 1 3.039 3.041zm6.713 16.11a3.039 3.039 0 1 1 -3.039-3.041 3.038 3.038 0 0 1 3.039 3.041zm-18.795-14.767a3.039 3.039 0 1 1 -3.039-3.041 3.038 3.038 0 0 1 3.039 3.041z"/><path d="m53.562 223.701a3.039 3.039 0 1 1 -3.039-3.041 3.038 3.038 0 0 1 3.039 3.041zm16.11-16.109a3.039 3.039 0 1 1 -3.039-3.041 3.038 3.038 0 0 1 3.039 3.041zm-13.425-17.452a3.039 3.039 0 1 1 -3.039-3.041 3.038 3.038 0 0 1 3.039 3.041zm18.794 42.959a3.039 3.039 0 1 1 -3.039-3.041 3.038 3.038 0 0 1 3.039 3.041zm-14.766 6.712a3.039 3.039 0 1 1 -3.039-3.041 3.038 3.038 0 0 1 3.039 3.041z"/><path d="m53.562 223.701a3.039 3.039 0 1 1 -3.039-3.041 3.038 3.038 0 0 1 3.039 3.041zm21.479 9.398a3.039 3.039 0 1 1 -3.039-3.041 3.038 3.038 0 0 1 3.039 3.041zm-5.369-25.507a3.039 3.039 0 1 1 -3.039-3.041 3.038 3.038 0 0 1 3.039 3.041z"/><path d="m53.562 223.701a3.039 3.039 0 1 1 -3.039-3.041 3.038 3.038 0 0 1 3.039 3.041zm21.479 9.398a3.039 3.039 0 1 1 -3.039-3.041 3.038 3.038 0 0 1 3.039 3.041zm-13.424 22.821a3.039 3.039 0 1 1 -3.039-3.041 3.038 3.038 0 0 1 3.039 3.041zm-1.342-16.109a3.039 3.039 0 1 1 -3.039-3.041 3.038 3.038 0 0 1 3.039 3.041z"/><path d="m75.041 233.099a3.039 3.039 0 1 1 -3.039-3.041 3.038 3.038 0 0 1 3.039 3.041zm17.452 12.082a3.039 3.039 0 1 1 -3.039-3.041 3.038 3.038 0 0 1 3.039 3.041zm-30.876 10.739a3.039 3.039 0 1 1 -3.039-3.041 3.038 3.038 0 0 1 3.039 3.041z"/><path d="m75.041 233.099a3.039 3.039 0 1 1 -3.039-3.041 3.038 3.038 0 0 1 3.039 3.041zm18.795-22.822a3.039 3.039 0 1 1 -3.039-3.041 3.038 3.038 0 0 1 3.039 3.041zm-24.164-2.685a3.039 3.039 0 1 1 -3.039-3.041 3.038 3.038 0 0 1 3.039 3.041zm30.876 25.507a3.039 3.039 0 1 1 -3.039-3.041 3.038 3.038 0 0 1 3.039 3.041zm-8.055 12.082a3.039 3.039 0 1 1 -3.039-3.041 3.038 3.038 0 0 1 3.039 3.041z"/><path d="m75.041 233.099a3.039 3.039 0 1 1 -3.039-3.041 3.038 3.038 0 0 1 3.039 3.041zm25.507 0a3.039 3.039 0 1 1 -3.039-3.041 3.038 3.038 0 0 1 3.039 3.041zm-6.712-22.822a3.039 3.039 0 1 1 -3.039-3.041 3.038 3.038 0 0 1 3.039 3.041z"/><path d="m75.041 233.099a3.039 3.039 0 1 1 -3.039-3.041 3.038 3.038 0 0 1 3.039 3.041zm25.507 0a3.039 3.039 0 1 1 -3.039-3.041 3.038 3.038 0 0 1 3.039 3.041zm1.342 26.848a3.039 3.039 0 1 1 -3.039-3.041 3.038 3.038 0 0 1 3.039 3.041zm-9.397-14.766a3.039 3.039 0 1 1 -3.039-3.041 3.038 3.038 0 0 1 3.039 3.041z"/><path d="m100.548 233.099a3.039 3.039 0 1 1 -3.039-3.041 3.038 3.038 0 0 1 3.039 3.041zm22.821 4.027a3.039 3.039 0 1 1 -3.039-3.041 3.038 3.038 0 0 1 3.039 3.041zm-21.479 22.821a3.039 3.039 0 1 1 -3.039-3.041 3.038 3.038 0 0 1 3.039 3.041zm22.822-41.615a3.039 3.039 0 1 1 -3.039-3.041 3.038 3.038 0 0 1 3.039 3.041z"/><path d="m100.548 233.099a3.039 3.039 0 1 1 -3.039-3.041 3.038 3.038 0 0 1 3.039 3.041zm-6.712-22.822a3.039 3.039 0 1 1 -3.039-3.041 3.038 3.038 0 0 1 3.039 3.041zm30.876 8.055a3.039 3.039 0 1 1 -3.039-3.041 3.038 3.038 0 0 1 3.039 3.041zm-12.082-18.794a3.039 3.039 0 1 1 -3.039-3.041 3.038 3.038 0 0 1 3.039 3.041z"/><path d="m93.836 210.277a3.039 3.039 0 1 1 -3.039-3.041 3.038 3.038 0 0 1 3.039 3.041zm30.876 8.055a3.039 3.039 0 1 1 -3.039-3.041 3.038 3.038 0 0 1 3.039 3.041zm-1.343 18.794a3.039 3.039 0 1 1 -3.039-3.041 3.038 3.038 0 0 1 3.039 3.041zm-22.821-4.027a3.039 3.039 0 1 1 -3.039-3.041 3.038 3.038 0 0 1 3.039 3.041z"/><path d="m124.712 218.332a3.039 3.039 0 1 1 -3.039-3.041 3.038 3.038 0 0 1 3.039 3.041zm22.821-1.343a3.039 3.039 0 1 1 -3.039-3.041 3.038 3.038 0 0 1 3.039 3.041zm-24.164 20.137a3.039 3.039 0 1 1 -3.039-3.041 3.038 3.038 0 0 1 3.039 3.041zm20.137-40.273a3.039 3.039 0 1 1 -3.039-3.041 3.038 3.038 0 0 1 3.039 3.041zm-20.137-25.507a3.039 3.039 0 1 1 -3.039-3.041 3.038 3.038 0 0 1 3.039 3.041zm-10.739 28.192a3.039 3.039 0 1 1 -3.039-3.041 3.038 3.038 0 0 1 3.039 3.041z"/><path d="m143.506 196.853a3.039 3.039 0 1 1 -3.039-3.041 3.038 3.038 0 0 1 3.039 3.041zm-18.794 21.479a3.039 3.039 0 1 1 -3.039-3.041 3.038 3.038 0 0 1 3.039 3.041zm-12.082-18.794a3.039 3.039 0 1 1 -3.039-3.041 3.038 3.038 0 0 1 3.039 3.041z"/><path d="m143.506 196.853a3.039 3.039 0 1 1 -3.039-3.041 3.038 3.038 0 0 1 3.039 3.041zm4.027 20.136a3.039 3.039 0 1 1 -3.039-3.041 3.038 3.038 0 0 1 3.039 3.041zm-22.821 1.343a3.039 3.039 0 1 1 -3.039-3.041 3.038 3.038 0 0 1 3.039 3.041z"/><path d="m143.506 196.853a3.039 3.039 0 1 1 -3.039-3.041 3.038 3.038 0 0 1 3.039 3.041zm14.767-6.713a3.039 3.039 0 1 1 -3.039-3.041 3.038 3.038 0 0 1 3.039 3.041zm-10.74 26.849a3.039 3.039 0 1 1 -3.039-3.041 3.038 3.038 0 0 1 3.039 3.041zm0-41.615a3.039 3.039 0 1 1 -3.039-3.041 3.038 3.038 0 0 1 3.039 3.041z"/><path d="m143.506 196.853a3.039 3.039 0 1 1 -3.039-3.041 3.038 3.038 0 0 1 3.039 3.041zm-20.137-25.507a3.039 3.039 0 1 1 -3.039-3.041 3.038 3.038 0 0 1 3.039 3.041zm24.164 4.028a3.039 3.039 0 1 1 -3.039-3.041 3.038 3.038 0 0 1 3.039 3.041zm10.74 14.766a3.039 3.039 0 1 1 -3.039-3.041 3.038 3.038 0 0 1 3.039 3.041z"/><path d="m143.506 196.853a3.039 3.039 0 1 1 -3.039-3.041 3.038 3.038 0 0 1 3.039 3.041zm4.027-21.479a3.039 3.039 0 1 1 -3.039-3.041 3.038 3.038 0 0 1 3.039 3.041zm13.425-14.767a3.039 3.039 0 1 1 -3.039-3.041 3.038 3.038 0 0 1 3.039 3.041zm-2.685 29.533a3.039 3.039 0 1 1 -3.039-3.041 3.038 3.038 0 0 1 3.039 3.041zm-10.74-37.588a3.039 3.039 0 1 1 -3.039-3.041 3.038 3.038 0 0 1 3.039 3.041z"/><path d="m147.533 175.374a3.039 3.039 0 1 1 -3.039-3.041 3.038 3.038 0 0 1 3.039 3.041zm-24.164-4.028a3.039 3.039 0 1 1 -3.039-3.041 3.038 3.038 0 0 1 3.039 3.041zm24.164-18.794a3.039 3.039 0 1 1 -3.039-3.041 3.038 3.038 0 0 1 3.039 3.041zm13.425 8.055a3.039 3.039 0 1 1 -3.039-3.041 3.038 3.038 0 0 1 3.039 3.041z"/><path d="m147.533 175.374a3.039 3.039 0 1 1 -3.039-3.041 3.038 3.038 0 0 1 3.039 3.041zm0-22.822a3.039 3.039 0 1 1 -3.039-3.041 3.038 3.038 0 0 1 3.039 3.041zm13.425 8.055a3.039 3.039 0 1 1 -3.039-3.041 3.038 3.038 0 0 1 3.039 3.041zm-5.37-22.822a3.039 3.039 0 1 1 -3.039-3.041 3.038 3.038 0 0 1 3.039 3.041zm-20.137-12.082a3.039 3.039 0 1 1 -3.039-3.041 3.038 3.038 0 0 1 3.039 3.041zm25.507-6.712a3.039 3.039 0 1 1 -3.039-3.041 3.038 3.038 0 0 1 3.039 3.041zm-21.479-4.027a3.039 3.039 0 1 1 -3.039-3.041 3.038 3.038 0 0 1 3.039 3.041z"/><path d="m135.451 125.703a3.039 3.039 0 1 1 -3.039-3.041 3.038 3.038 0 0 1 3.039 3.041zm20.137 12.082a3.039 3.039 0 1 1 -3.039-3.041 3.038 3.038 0 0 1 3.039 3.041zm-8.055 14.767a3.039 3.039 0 1 1 -3.039-3.041 3.038 3.038 0 0 1 3.039 3.041z"/><path d="m135.451 125.703a3.039 3.039 0 1 1 -3.039-3.041 3.038 3.038 0 0 1 3.039 3.041zm25.507-6.712a3.039 3.039 0 1 1 -3.039-3.041 3.038 3.038 0 0 1 3.039 3.041zm-5.37 18.794a3.039 3.039 0 1 1 -3.039-3.041 3.038 3.038 0 0 1 3.039 3.041zm-60.41-12.082a3.039 3.039 0 1 1 -3.039-3.041 3.038 3.038 0 0 1 3.039 3.041zm16.109 18.794a3.039 3.039 0 1 1 -3.039-3.041 3.038 3.038 0 0 1 3.039 3.041zm-34.903-6.712a3.039 3.039 0 1 1 -3.039-3.041 3.038 3.038 0 0 1 3.039 3.041zm-17.452-10.739a3.039 3.039 0 1 1 -3.039-3.041 3.038 3.038 0 0 1 3.039 3.041z"/><path d="m76.384 137.785a3.039 3.039 0 1 1 -3.039-3.041 3.038 3.038 0 0 1 3.039 3.041zm-37.588-1.342a3.039 3.039 0 1 1 -3.039-3.041 3.038 3.038 0 0 1 3.039 3.041zm-17.452-14.767a3.039 3.039 0 1 1 -3.039-3.041 3.038 3.038 0 0 1 3.039 3.041z"/><path d="m38.796 136.443a3.039 3.039 0 1 1 -3.039-3.041 3.038 3.038 0 0 1 3.039 3.041zm-28.192 1.342a3.039 3.039 0 1 1 -3.039-3.041 3.038 3.038 0 0 1 3.039 3.041zm13.425-26.849a3.039 3.039 0 1 1 -3.039-3.041 3.038 3.038 0 0 1 3.039 3.041zm-9.397-37.588a3.039 3.039 0 1 1 -3.039-3.041 3.038 3.038 0 0 1 3.039 3.041z"/><path d="m10.604 137.785a3.039 3.039 0 1 1 -3.039-3.041 3.038 3.038 0 0 1 3.039 3.041zm13.425-26.849a3.039 3.039 0 1 1 -3.039-3.041 3.038 3.038 0 0 1 3.039 3.041zm-2.685 10.74a3.039 3.039 0 1 1 -3.039-3.041 3.038 3.038 0 0 1 3.039 3.041z"/><path d="m10.604 137.785a3.039 3.039 0 1 1 -3.039-3.041 3.038 3.038 0 0 1 3.039 3.041zm13.425-26.849a3.039 3.039 0 1 1 -3.039-3.041 3.038 3.038 0 0 1 3.039 3.041zm13.424-17.451a3.039 3.039 0 1 1 -3.039-3.041 3.038 3.038 0 0 1 3.039 3.041zm-22.821-20.137a3.039 3.039 0 1 1 -3.039-3.041 3.038 3.038 0 0 1 3.039 3.041zm33.561 38.931a3.039 3.039 0 1 1 -3.039-3.041 3.038 3.038 0 0 1 3.039 3.041z"/><path d="m24.029 110.936a3.039 3.039 0 1 1 -3.039-3.041 3.038 3.038 0 0 1 3.039 3.041zm-2.685 10.74a3.039 3.039 0 1 1 -3.039-3.041 3.038 3.038 0 0 1 3.039 3.041zm26.849-9.397a3.039 3.039 0 1 1 -3.039-3.041 3.038 3.038 0 0 1 3.039 3.041zm-9.397 24.164a3.039 3.039 0 1 1 -3.039-3.041 3.038 3.038 0 0 1 3.039 3.041z"/><path d="m21.344 121.676a3.039 3.039 0 1 1 -3.039-3.041 3.038 3.038 0 0 1 3.039 3.041zm26.849-9.397a3.039 3.039 0 1 1 -3.039-3.041 3.038 3.038 0 0 1 3.039 3.041zm-10.74-18.794a3.039 3.039 0 1 1 -3.039-3.041 3.038 3.038 0 0 1 3.039 3.041zm-13.424 17.451a3.039 3.039 0 1 1 -3.039-3.041 3.038 3.038 0 0 1 3.039 3.041z"/><path d="m48.193 112.279a3.039 3.039 0 1 1 -3.039-3.041 3.038 3.038 0 0 1 3.039 3.041zm10.739-22.822a3.039 3.039 0 1 1 -3.039-3.041 3.038 3.038 0 0 1 3.039 3.041zm-21.479 4.028a3.039 3.039 0 1 1 -3.039-3.041 3.038 3.038 0 0 1 3.039 3.041z"/><path d="m48.193 112.279a3.039 3.039 0 1 1 -3.039-3.041 3.038 3.038 0 0 1 3.039 3.041zm10.739 14.767a3.039 3.039 0 1 1 -3.039-3.041 3.038 3.038 0 0 1 3.039 3.041zm-20.136 9.397a3.039 3.039 0 1 1 -3.039-3.041 3.038 3.038 0 0 1 3.039 3.041z"/><path d="m48.193 112.279a3.039 3.039 0 1 1 -3.039-3.041 3.038 3.038 0 0 1 3.039 3.041zm20.136-13.425a3.039 3.039 0 1 1 -3.039-3.041 3.038 3.038 0 0 1 3.039 3.041zm-9.397-9.397a3.039 3.039 0 1 1 -3.039-3.041 3.038 3.038 0 0 1 3.039 3.041zm13.425 26.849a3.039 3.039 0 1 1 -3.039-3.041 3.038 3.038 0 0 1 3.039 3.041zm22.821 9.397a3.039 3.039 0 1 1 -3.039-3.041 3.038 3.038 0 0 1 3.039 3.041zm-18.794 12.082a3.039 3.039 0 1 1 -3.039-3.041 3.038 3.038 0 0 1 3.039 3.041z"/><path d="m72.357 116.306a3.039 3.039 0 1 1 -3.039-3.041 3.038 3.038 0 0 1 3.039 3.041zm28.191-22.821a3.039 3.039 0 1 1 -3.039-3.041 3.038 3.038 0 0 1 3.039 3.041zm-5.37 32.218a3.039 3.039 0 1 1 -3.039-3.041 3.038 3.038 0 0 1 3.039 3.041z"/><path d="m72.357 116.306a3.039 3.039 0 1 1 -3.039-3.041 3.038 3.038 0 0 1 3.039 3.041zm-13.425 10.74a3.039 3.039 0 1 1 -3.039-3.041 3.038 3.038 0 0 1 3.039 3.041zm-10.739-14.767a3.039 3.039 0 1 1 -3.039-3.041 3.038 3.038 0 0 1 3.039 3.041z"/><path d="m72.357 116.306a3.039 3.039 0 1 1 -3.039-3.041 3.038 3.038 0 0 1 3.039 3.041zm-4.028-17.452a3.039 3.039 0 1 1 -3.039-3.041 3.038 3.038 0 0 1 3.039 3.041zm-20.136 13.425a3.039 3.039 0 1 1 -3.039-3.041 3.038 3.038 0 0 1 3.039 3.041z"/><path d="m72.357 116.306a3.039 3.039 0 1 1 -3.039-3.041 3.038 3.038 0 0 1 3.039 3.041zm4.027 21.479a3.039 3.039 0 1 1 -3.039-3.041 3.038 3.038 0 0 1 3.039 3.041zm-17.452-10.739a3.039 3.039 0 1 1 -3.039-3.041 3.038 3.038 0 0 1 3.039 3.041z"/><path d="m72.357 116.306a3.039 3.039 0 1 1 -3.039-3.041 3.038 3.038 0 0 1 3.039 3.041zm28.191-22.821a3.039 3.039 0 1 1 -3.039-3.041 3.038 3.038 0 0 1 3.039 3.041zm-32.219 5.369a3.039 3.039 0 1 1 -3.039-3.041 3.038 3.038 0 0 1 3.039 3.041zm40.274 20.137a3.039 3.039 0 1 1 -3.039-3.041 3.038 3.038 0 0 1 3.039 3.041z"/><path d="m100.548 93.485a3.039 3.039 0 1 1 -3.039-3.041 3.038 3.038 0 0 1 3.039 3.041zm-5.37 32.218a3.039 3.039 0 1 1 -3.039-3.041 3.038 3.038 0 0 1 3.039 3.041zm13.425-6.712a3.039 3.039 0 1 1 -3.039-3.041 3.038 3.038 0 0 1 3.039 3.041zm2.684 25.506a3.039 3.039 0 1 1 -3.039-3.041 3.038 3.038 0 0 1 3.039 3.041z"/><path d="m95.178 125.703a3.039 3.039 0 1 1 -3.039-3.041 3.038 3.038 0 0 1 3.039 3.041zm13.425-6.712a3.039 3.039 0 1 1 -3.039-3.041 3.038 3.038 0 0 1 3.039 3.041zm6.712-17.452a3.039 3.039 0 1 1 -3.039-3.041 3.038 3.038 0 0 1 3.039 3.041zm-14.767-8.054a3.039 3.039 0 1 1 -3.039-3.041 3.038 3.038 0 0 1 3.039 3.041z"/><path d="m108.603 118.991a3.039 3.039 0 1 1 -3.039-3.041 3.038 3.038 0 0 1 3.039 3.041zm26.848 6.712a3.039 3.039 0 1 1 -3.039-3.041 3.038 3.038 0 0 1 3.039 3.041zm-24.164 18.794a3.039 3.039 0 1 1 -3.039-3.041 3.038 3.038 0 0 1 3.039 3.041z"/><path d="m108.603 118.991a3.039 3.039 0 1 1 -3.039-3.041 3.038 3.038 0 0 1 3.039 3.041zm30.876-4.027a3.039 3.039 0 1 1 -3.039-3.041 3.038 3.038 0 0 1 3.039 3.041zm-24.164-13.425a3.039 3.039 0 1 1 -3.039-3.041 3.038 3.038 0 0 1 3.039 3.041z"/><path d="m108.603 118.991a3.039 3.039 0 1 1 -3.039-3.041 3.038 3.038 0 0 1 3.039 3.041zm30.876-4.027a3.039 3.039 0 1 1 -3.039-3.041 3.038 3.038 0 0 1 3.039 3.041zm-4.028 10.739a3.039 3.039 0 1 1 -3.039-3.041 3.038 3.038 0 0 1 3.039 3.041zm-9.397 20.137a3.039 3.039 0 1 1 -3.039-3.041 3.038 3.038 0 0 1 3.039 3.041zm-2.685 25.506a3.039 3.039 0 1 1 -3.039-3.041 3.038 3.038 0 0 1 3.039 3.041zm-12.082-26.849a3.039 3.039 0 1 1 -3.039-3.041 3.038 3.038 0 0 1 3.039 3.041z"/><path d="m126.054 145.84a3.039 3.039 0 1 1 -3.039-3.041 3.038 3.038 0 0 1 3.039 3.041zm9.397-20.137a3.039 3.039 0 1 1 -3.039-3.041 3.038 3.038 0 0 1 3.039 3.041zm-24.164 18.794a3.039 3.039 0 1 1 -3.039-3.041 3.038 3.038 0 0 1 3.039 3.041z"/><path d="m126.054 145.84a3.039 3.039 0 1 1 -3.039-3.041 3.038 3.038 0 0 1 3.039 3.041zm21.479 6.712a3.039 3.039 0 1 1 -3.039-3.041 3.038 3.038 0 0 1 3.039 3.041zm-24.164 18.794a3.039 3.039 0 1 1 -3.039-3.041 3.038 3.038 0 0 1 3.039 3.041z"/><path d="m126.054 145.84a3.039 3.039 0 1 1 -3.039-3.041 3.038 3.038 0 0 1 3.039 3.041zm21.479 6.712a3.039 3.039 0 1 1 -3.039-3.041 3.038 3.038 0 0 1 3.039 3.041zm-12.082-26.849a3.039 3.039 0 1 1 -3.039-3.041 3.038 3.038 0 0 1 3.039 3.041zm-61.752-95.313a3.039 3.039 0 1 1 -3.039-3.041 3.038 3.038 0 0 1 3.039 3.041zm26.849-6.712a3.039 3.039 0 1 1 -3.039-3.041 3.038 3.038 0 0 1 3.039 3.041zm-14.767 17.451a3.039 3.039 0 1 1 -3.039-3.041 3.038 3.038 0 0 1 3.039 3.041z"/><path d="m73.699 30.39a3.039 3.039 0 1 1 -3.039-3.041 3.038 3.038 0 0 1 3.039 3.041zm-17.452 22.821a3.039 3.039 0 1 1 -3.039-3.041 3.038 3.038 0 0 1 3.039 3.041zm-1.342-28.191a3.039 3.039 0 1 1 -3.039-3.041 3.038 3.038 0 0 1 3.039 3.041z"/><path d="m73.699 30.39a3.039 3.039 0 1 1 -3.039-3.041 3.038 3.038 0 0 1 3.039 3.041zm-9.397-26.849a3.039 3.039 0 1 1 -3.039-3.041 3.038 3.038 0 0 1 3.039 3.041zm-9.397 21.479a3.039 3.039 0 1 1 -3.039-3.041 3.038 3.038 0 0 1 3.039 3.041z"/><path d="m73.699 30.39a3.039 3.039 0 1 1 -3.039-3.041 3.038 3.038 0 0 1 3.039 3.041zm26.849-6.712a3.039 3.039 0 1 1 -3.039-3.041 3.038 3.038 0 0 1 3.039 3.041zm-36.246-20.137a3.039 3.039 0 1 1 -3.039-3.041 3.038 3.038 0 0 1 3.039 3.041zm67.122 24.164a3.039 3.039 0 1 1 -3.039-3.041 3.038 3.038 0 0 1 3.039 3.041zm-16.109 25.506a3.039 3.039 0 1 1 -3.039-3.041 3.038 3.038 0 0 1 3.039 3.041z"/><path d="m100.548 23.678a3.039 3.039 0 1 1 -3.039-3.041 3.038 3.038 0 0 1 3.039 3.041zm30.876 4.027a3.039 3.039 0 1 1 -3.039-3.041 3.038 3.038 0 0 1 3.039 3.041zm-14.767-24.164a3.039 3.039 0 1 1 -3.039-3.041 3.038 3.038 0 0 1 3.039 3.041z"/><path d="m100.548 23.678a3.039 3.039 0 1 1 -3.039-3.041 3.038 3.038 0 0 1 3.039 3.041zm30.876 4.027a3.039 3.039 0 1 1 -3.039-3.041 3.038 3.038 0 0 1 3.039 3.041zm8.055 14.767a3.039 3.039 0 1 1 -3.039-3.041 3.038 3.038 0 0 1 3.039 3.041zm-24.164 10.739a3.039 3.039 0 1 1 -3.039-3.041 3.038 3.038 0 0 1 3.039 3.041zm36.246-33.561a3.039 3.039 0 1 1 -3.039-3.041 3.038 3.038 0 0 1 3.039 3.041z"/><path d="m131.424 27.705a3.039 3.039 0 1 1 -3.039-3.041 3.038 3.038 0 0 1 3.039 3.041zm-14.767-24.164a3.039 3.039 0 1 1 -3.039-3.041 3.038 3.038 0 0 1 3.039 3.041zm34.904 16.109a3.039 3.039 0 1 1 -3.039-3.041 3.038 3.038 0 0 1 3.039 3.041zm12.082-14.767a3.039 3.039 0 1 1 -3.039-3.041 3.038 3.038 0 0 1 3.039 3.041z"/><path d="m116.657 3.541a3.039 3.039 0 1 1 -3.039-3.041 3.038 3.038 0 0 1 3.039 3.041zm34.904 16.109a3.039 3.039 0 1 1 -3.039-3.041 3.038 3.038 0 0 1 3.039 3.041zm-12.082 22.822a3.039 3.039 0 1 1 -3.039-3.041 3.038 3.038 0 0 1 3.039 3.041zm-8.055-14.767a3.039 3.039 0 1 1 -3.039-3.041 3.038 3.038 0 0 1 3.039 3.041z"/><path d="m151.561 19.65a3.039 3.039 0 1 1 -3.039-3.041 3.038 3.038 0 0 1 3.039 3.041zm-12.082 22.822a3.039 3.039 0 1 1 -3.039-3.041 3.038 3.038 0 0 1 3.039 3.041z"/><path d="m151.561 19.65a3.039 3.039 0 1 1 -3.039-3.041 3.038 3.038 0 0 1 3.039 3.041zm12.082-14.767a3.039 3.039 0 1 1 -3.039-3.041 3.038 3.038 0 0 1 3.039 3.041zm-48.328 48.328a3.039 3.039 0 1 1 -3.039-3.041 3.038 3.038 0 0 1 3.039 3.041zm20.136-1.342a3.039 3.039 0 1 1 -3.039-3.041 3.038 3.038 0 0 1 3.039 3.041zm0 48.328a3.039 3.039 0 1 1 -3.039-3.041 3.038 3.038 0 0 1 3.039 3.041z"/><path d="m135.451 51.869a3.039 3.039 0 1 1 -3.039-3.041 3.038 3.038 0 0 1 3.039 3.041zm4.028-9.397a3.039 3.039 0 1 1 -3.039-3.041 3.038 3.038 0 0 1 3.039 3.041zm-24.164 10.739a3.039 3.039 0 1 1 -3.039-3.041 3.038 3.038 0 0 1 3.039 3.041z"/><path d="m135.451 51.869a3.039 3.039 0 1 1 -3.039-3.041 3.038 3.038 0 0 1 3.039 3.041zm26.849 1.342a3.039 3.039 0 1 1 -3.039-3.041 3.038 3.038 0 0 1 3.039 3.041zm-26.849 46.986a3.039 3.039 0 1 1 -3.039-3.041 3.038 3.038 0 0 1 3.039 3.041z"/><path d="m135.451 51.869a3.039 3.039 0 1 1 -3.039-3.041 3.038 3.038 0 0 1 3.039 3.041zm26.849 1.342a3.039 3.039 0 1 1 -3.039-3.041 3.038 3.038 0 0 1 3.039 3.041zm-22.821-10.739a3.039 3.039 0 1 1 -3.039-3.041 3.038 3.038 0 0 1 3.039 3.041zm-63.095 9.397a3.039 3.039 0 1 1 -3.039-3.041 3.038 3.038 0 0 1 3.039 3.041zm9.397-10.74a3.039 3.039 0 1 1 -3.039-3.041 3.038 3.038 0 0 1 3.039 3.041zm-12.082-10.739a3.039 3.039 0 1 1 -3.039-3.041 3.038 3.038 0 0 1 3.039 3.041z"/><path d="m76.384 51.869a3.039 3.039 0 1 1 -3.039-3.041 3.038 3.038 0 0 1 3.039 3.041zm38.931 1.342a3.039 3.039 0 1 1 -3.039-3.041 3.038 3.038 0 0 1 3.039 3.041zm-29.534-12.082a3.039 3.039 0 1 1 -3.039-3.041 3.038 3.038 0 0 1 3.039 3.041z"/><path d="m76.384 51.869a3.039 3.039 0 1 1 -3.039-3.041 3.038 3.038 0 0 1 3.039 3.041zm38.931 1.342a3.039 3.039 0 1 1 -3.039-3.041 3.038 3.038 0 0 1 3.039 3.041zm-14.767 40.274a3.039 3.039 0 1 1 -3.039-3.041 3.038 3.038 0 0 1 3.039 3.041z"/><path d="m76.384 51.869a3.039 3.039 0 1 1 -3.039-3.041 3.038 3.038 0 0 1 3.039 3.041zm-2.685-21.479a3.039 3.039 0 1 1 -3.039-3.041 3.038 3.038 0 0 1 3.039 3.041zm-17.452 22.821a3.039 3.039 0 1 1 -3.039-3.041 3.038 3.038 0 0 1 3.039 3.041z"/><path d="m76.384 51.869a3.039 3.039 0 1 1 -3.039-3.041 3.038 3.038 0 0 1 3.039 3.041zm-8.055 46.985a3.039 3.039 0 1 1 -3.039-3.041 3.038 3.038 0 0 1 3.039 3.041zm-9.397-9.397a3.039 3.039 0 1 1 -3.039-3.041 3.038 3.038 0 0 1 3.039 3.041z"/><path d="m76.384 51.869a3.039 3.039 0 1 1 -3.039-3.041 3.038 3.038 0 0 1 3.039 3.041zm24.164 41.616a3.039 3.039 0 1 1 -3.039-3.041 3.038 3.038 0 0 1 3.039 3.041zm-32.219 5.369a3.039 3.039 0 1 1 -3.039-3.041 3.038 3.038 0 0 1 3.039 3.041zm33.561 161.093a3.039 3.039 0 1 1 -3.039-3.041 3.038 3.038 0 0 1 3.039 3.041zm37.589-12.082a3.039 3.039 0 1 1 -3.039-3.041 3.038 3.038 0 0 1 3.039 3.041z"/><path d="m101.89 259.947a3.039 3.039 0 1 1 -3.039-3.041 3.038 3.038 0 0 1 3.039 3.041z"/><path d="m101.89 259.947a3.039 3.039 0 1 1 -3.039-3.041 3.038 3.038 0 0 1 3.039 3.041zm37.589-12.082a3.039 3.039 0 1 1 -3.039-3.041 3.038 3.038 0 0 1 3.039 3.041z"/><path d="m139.479 247.865a3.039 3.039 0 1 1 -3.039-3.041 3.038 3.038 0 0 1 3.039 3.041zm21.479-128.874a3.039 3.039 0 1 1 -3.039-3.041 3.038 3.038 0 0 1 3.039 3.041zm1.342-65.78a3.039 3.039 0 1 1 -3.039-3.041 3.038 3.038 0 0 1 3.039 3.041z"/><path d="m160.958 118.991a3.039 3.039 0 1 1 -3.039-3.041 3.038 3.038 0 0 1 3.039 3.041z"/><path d="m160.958 118.991a3.039 3.039 0 1 1 -3.039-3.041 3.038 3.038 0 0 1 3.039 3.041zm1.342-65.78a3.039 3.039 0 1 1 -3.039-3.041 3.038 3.038 0 0 1 3.039 3.041z"/><path d="m162.3 53.211a3.039 3.039 0 1 1 -3.039-3.041 3.038 3.038 0 0 1 3.039 3.041zm1.343-48.328a3.039 3.039 0 1 1 -3.039-3.041 3.038 3.038 0 0 1 3.039 3.041z"/><path d="m163.643 4.883a3.039 3.039 0 1 1 -3.039-3.041 3.038 3.038 0 0 1 3.039 3.041z"/><path d="m163.643 4.883a3.039 3.039 0 1 1 -3.039-3.041 3.038 3.038 0 0 1 3.039 3.041z"/></g></g><g fill="#fff" stroke="#152d45"><g stroke-miterlimit="10"><path d="m330.238 446.219 15.5 1.292-3.875 15.5zm-63.289 188.573 3.875-14.208 11.625-2.583zm0 0 25.833 3.875-10.334-20.662zm3.875-14.208 7.75-19.374 3.875 16.791z"/><path d="m278.573 601.214 3.875 16.791h23.249z"/><path d="m282.448 618.005 10.333 20.666 12.916-20.666z"/><path d="m292.781 638.667 28.416-5.166-15.5-15.5z"/><path d="m305.697 618.001 15.5 15.5 1.292-33.582z"/><path d="m321.197 633.5 15.5-31-14.208-2.578zm1.292-33.582 14.208 2.58-1.292-29.7z"/><path d="m336.697 602.502 21.957-51.661-23.249 21.958zm-1.292-29.708 23.249-21.958-10.333-10.328z"/><path d="m348.321 540.504 10.333 10.333 2.583-37.457z"/><path d="m358.654 550.836 16.791-40.04-14.208 2.583zm16.79-40.04 14.209-36.161-18.083 9.041zm14.209-36.165 15.5-33.582-16.791 10.333zm-25.833-78.785h46.5l-14.209 19.37zm41.332 45.202 12.917-32.286-21.958 6.458z"/><path d="m410.319 395.846 7.75 12.916-21.958 6.458zm-68.456 67.165 3.875-15.5 18.083 15.5z"/><path d="m371.57 483.672 18.083-9.041-25.833-11.621z"/><path d="m388.361 451.386 1.292 23.249-25.832-11.625zm-61.998 42.619 15.5-31 11.625 31z"/><path d="m341.863 463.01h21.958l-10.333 31z"/><path d="m361.237 513.379 14.208-2.583-21.958-16.787zm2.583-50.369 7.75 20.666-18.083 10.333z"/><path d="m371.57 483.676 3.875 27.124-21.958-16.791zm-69.747 67.16 24.541-56.827 15.499 29.7z"/><path d="m326.363 494.009h27.124l-11.625 29.7zm21.958 46.495 12.916-27.12-19.374 10.333zm5.167-46.495 7.75 19.374-19.375 10.326zm-51.665 56.828 40.04-27.124-19.374 27.124zm33.582 21.957 12.916-32.286-25.832 10.333z"/><path d="m341.863 523.717 6.458 16.791-25.832 10.329zm-40.04 27.124h20.666l-5.167 21.958z"/><path d="m322.488 550.841 12.916 21.958h-18.082z"/><path d="m322.488 599.918 12.917-27.12h-18.083zm-43.915 1.292 23.249-50.369 6.458 41.332z"/><path d="m278.573 601.21 27.124 16.791 2.583-25.832zm23.25-50.369 15.5 21.958-9.041 19.374z"/><path d="m305.697 618.001 16.791-18.083-14.208-7.75z"/><path d="m317.322 572.798 5.167 27.124-14.208-7.75zm-74.914-149.828 7.75 23.249 10.333-14.208z"/><path d="m250.158 446.212 36.165 1.292-25.832-15.5zm36.165 1.295 43.915-1.292-28.416-9.037zm43.915-1.292 15.5 1.292-2.584-14.204zm-87.83-23.249 7.75-27.124 25.832 23.249z"/><path d="m242.408 422.966 18.083 9.041 15.5-12.916z"/><path d="m250.158 395.846h29.707l-3.875 23.249zm10.333 36.161 25.832 15.5-10.333-28.412z"/><path d="m286.323 447.507 15.5-10.333-25.833-18.079zm-10.333-28.416 3.874-23.245 38.749 25.832z"/><path d="m275.99 419.095 25.832 18.083 16.791-15.5zm3.875-23.249h40.04l-1.292 25.832zm21.958 41.333 28.416 9.041-11.625-24.541z"/><path d="m330.239 446.216 12.916-12.916-24.541-11.621zm-11.625-24.542 1.292-25.828 29.707 20.666z"/><path d="m318.614 421.674 24.541 11.625 6.458-16.791z"/><path d="m319.905 395.846h43.915l-14.208 20.666zm23.249 37.453 2.583 14.208 32.291-23.245z"/><path d="m343.154 433.299 6.458-16.791 28.416 7.75zm2.584 14.208 18.083 15.5 14.208-38.745z"/><path d="m349.613 416.508 14.208-20.662 14.208 28.416z"/><path d="m363.82 395.846 32.291 19.374-18.083 9.041zm0 67.161 24.541-11.625-10.333-27.12z"/><path d="m388.361 451.382 16.791-10.333-27.124-16.787z"/><path d="m396.111 415.22 9.041 25.832-27.124-16.791z"/></g><path d="m344.786 463.008a2.924 2.924 0 1 1 -2.924-2.926 2.923 2.923 0 0 1 2.924 2.926zm3.874-15.499a2.924 2.924 0 1 1 -2.924-2.926 2.923 2.923 0 0 1 2.924 2.926zm-15.498-1.292a2.924 2.924 0 1 1 -2.924-2.926 2.923 2.923 0 0 1 2.924 2.926zm-47.791 171.786a2.924 2.924 0 1 1 -2.924-2.925 2.923 2.923 0 0 1 2.924 2.925zm-11.625 2.583a2.924 2.924 0 1 1 -2.924-2.926 2.923 2.923 0 0 1 2.924 2.926z"/><path d="m285.371 618.003a2.924 2.924 0 1 1 -2.924-2.925 2.923 2.923 0 0 1 2.924 2.925zm10.333 20.666a2.924 2.924 0 1 1 -2.924-2.925 2.923 2.923 0 0 1 2.924 2.925z"/><path d="m285.371 618.003a2.924 2.924 0 1 1 -2.924-2.925 2.923 2.923 0 0 1 2.924 2.925zm-3.874-16.791a2.924 2.924 0 1 1 -2.924-2.926 2.923 2.923 0 0 1 2.924 2.926zm-7.751 19.374a2.924 2.924 0 1 1 -2.924-2.926 2.923 2.923 0 0 1 2.924 2.926zm34.874-2.583a2.924 2.924 0 1 1 -2.924-2.925 2.923 2.923 0 0 1 2.924 2.925z"/><path d="m285.371 618.003a2.924 2.924 0 1 1 -2.924-2.925 2.923 2.923 0 0 1 2.924 2.925zm-3.874-16.791a2.924 2.924 0 1 1 -2.924-2.926 2.923 2.923 0 0 1 2.924 2.926zm27.123 16.791a2.924 2.924 0 1 1 -2.924-2.925 2.923 2.923 0 0 1 2.924 2.925zm-12.916 20.666a2.924 2.924 0 1 1 -2.924-2.925 2.923 2.923 0 0 1 2.924 2.925z"/><path d="m285.371 618.003a2.924 2.924 0 1 1 -2.924-2.925 2.923 2.923 0 0 1 2.924 2.925zm23.249 0a2.924 2.924 0 1 1 -2.924-2.925 2.923 2.923 0 0 1 2.924 2.925zm15.5 15.499a2.924 2.924 0 1 1 -2.924-2.925 2.923 2.923 0 0 1 2.924 2.925zm-28.416 5.167a2.924 2.924 0 1 1 -2.924-2.925 2.923 2.923 0 0 1 2.924 2.925zm29.707-38.749a2.924 2.924 0 1 1 -2.924-2.926 2.923 2.923 0 0 1 2.924 2.926z"/><path d="m324.12 633.502a2.924 2.924 0 1 1 -2.924-2.925 2.923 2.923 0 0 1 2.924 2.925zm-15.5-15.499a2.924 2.924 0 1 1 -2.924-2.925 2.923 2.923 0 0 1 2.924 2.925zm16.791-18.083a2.924 2.924 0 1 1 -2.924-2.926 2.923 2.923 0 0 1 2.924 2.926zm14.208 2.584a2.924 2.924 0 1 1 -2.924-2.926 2.923 2.923 0 0 1 2.924 2.926z"/><path d="m324.12 633.502a2.924 2.924 0 1 1 -2.924-2.925 2.923 2.923 0 0 1 2.924 2.925zm14.207-60.706a2.924 2.924 0 1 1 -2.924-2.926 2.923 2.923 0 0 1 2.924 2.926zm1.292 29.708a2.924 2.924 0 1 1 -2.924-2.926 2.923 2.923 0 0 1 2.924 2.926zm-14.208-2.584a2.924 2.924 0 1 1 -2.924-2.926 2.923 2.923 0 0 1 2.924 2.926z"/><path d="m338.327 572.796a2.924 2.924 0 1 1 -2.924-2.926 2.923 2.923 0 0 1 2.924 2.926zm1.292 29.708a2.924 2.924 0 1 1 -2.924-2.926 2.923 2.923 0 0 1 2.924 2.926zm11.625-61.998a2.924 2.924 0 1 1 -2.924-2.926 2.923 2.923 0 0 1 2.924 2.926z"/><path d="m338.327 572.796a2.924 2.924 0 1 1 -2.924-2.926 2.923 2.923 0 0 1 2.924 2.926zm12.917-32.29a2.924 2.924 0 1 1 -2.924-2.926 2.923 2.923 0 0 1 2.924 2.926zm-2.584-92.997a2.924 2.924 0 1 1 -2.924-2.926 2.923 2.923 0 0 1 2.924 2.926zm-3.874 15.499a2.924 2.924 0 1 1 -2.924-2.926 2.923 2.923 0 0 1 2.924 2.926z"/><path d="m344.786 463.008a2.924 2.924 0 1 1 -2.924-2.926 2.923 2.923 0 0 1 2.924 2.926zm-15.5 30.999a2.924 2.924 0 1 1 -2.924-2.926 2.923 2.923 0 0 1 2.924 2.926z"/><path d="m344.786 463.008a2.924 2.924 0 1 1 -2.924-2.926 2.923 2.923 0 0 1 2.924 2.926zm0 60.707a2.924 2.924 0 1 1 -2.924-2.926 2.923 2.923 0 0 1 2.924 2.926zm-15.5-29.708a2.924 2.924 0 1 1 -2.924-2.926 2.923 2.923 0 0 1 2.924 2.926zm-24.54 56.832a2.924 2.924 0 1 1 -2.924-2.926 2.923 2.923 0 0 1 2.924 2.926z"/><path d="m344.786 523.715a2.924 2.924 0 1 1 -2.924-2.926 2.923 2.923 0 0 1 2.924 2.926zm-15.5-29.708a2.924 2.924 0 1 1 -2.924-2.926 2.923 2.923 0 0 1 2.924 2.926z"/><path d="m344.786 523.715a2.924 2.924 0 1 1 -2.924-2.926 2.923 2.923 0 0 1 2.924 2.926zm6.458 16.791a2.924 2.924 0 1 1 -2.924-2.926 2.923 2.923 0 0 1 2.924 2.926z"/><path d="m344.786 523.715a2.924 2.924 0 1 1 -2.924-2.926 2.923 2.923 0 0 1 2.924 2.926zm-19.375 27.124a2.924 2.924 0 1 1 -2.924-2.926 2.923 2.923 0 0 1 2.924 2.926z"/><path d="m344.786 523.715a2.924 2.924 0 1 1 -2.924-2.926 2.923 2.923 0 0 1 2.924 2.926zm-40.04 27.124a2.924 2.924 0 1 1 -2.924-2.926 2.923 2.923 0 0 1 2.924 2.926zm20.665 0a2.924 2.924 0 1 1 -2.924-2.926 2.923 2.923 0 0 1 2.924 2.926zm25.833-10.333a2.924 2.924 0 1 1 -2.924-2.926 2.923 2.923 0 0 1 2.924 2.926zm-12.917 32.29a2.924 2.924 0 1 1 -2.924-2.926 2.923 2.923 0 0 1 2.924 2.926z"/><path d="m325.411 550.839a2.924 2.924 0 1 1 -2.924-2.926 2.923 2.923 0 0 1 2.924 2.926zm25.833-10.333a2.924 2.924 0 1 1 -2.924-2.926 2.923 2.923 0 0 1 2.924 2.926zm-6.458-16.791a2.924 2.924 0 1 1 -2.924-2.926 2.923 2.923 0 0 1 2.924 2.926zm-24.541 49.081a2.924 2.924 0 1 1 -2.924-2.926 2.923 2.923 0 0 1 2.924 2.926z"/><path d="m325.411 550.839a2.924 2.924 0 1 1 -2.924-2.926 2.923 2.923 0 0 1 2.924 2.926zm-20.665 0a2.924 2.924 0 1 1 -2.924-2.926 2.923 2.923 0 0 1 2.924 2.926zm15.499 21.957a2.924 2.924 0 1 1 -2.924-2.926 2.923 2.923 0 0 1 2.924 2.926zm18.082 0a2.924 2.924 0 1 1 -2.924-2.926 2.923 2.923 0 0 1 2.924 2.926z"/><path d="m325.411 550.839a2.924 2.924 0 1 1 -2.924-2.926 2.923 2.923 0 0 1 2.924 2.926zm-5.166 21.957a2.924 2.924 0 1 1 -2.924-2.926 2.923 2.923 0 0 1 2.924 2.926zm18.082 0a2.924 2.924 0 1 1 -2.924-2.926 2.923 2.923 0 0 1 2.924 2.926zm-12.916 27.124a2.924 2.924 0 1 1 -2.924-2.926 2.923 2.923 0 0 1 2.924 2.926zm-14.208-7.749a2.924 2.924 0 1 1 -2.924-2.926 2.923 2.923 0 0 1 2.924 2.926zm-6.457-41.332a2.924 2.924 0 1 1 -2.924-2.926 2.923 2.923 0 0 1 2.924 2.926zm-23.249 50.373a2.924 2.924 0 1 1 -2.924-2.926 2.923 2.923 0 0 1 2.924 2.926z"/><path d="m311.203 592.171a2.924 2.924 0 1 1 -2.924-2.926 2.923 2.923 0 0 1 2.924 2.926zm-2.583 25.832a2.924 2.924 0 1 1 -2.924-2.925 2.923 2.923 0 0 1 2.924 2.925zm-27.123-16.791a2.924 2.924 0 1 1 -2.924-2.926 2.923 2.923 0 0 1 2.924 2.926z"/><path d="m311.203 592.171a2.924 2.924 0 1 1 -2.924-2.926 2.923 2.923 0 0 1 2.924 2.926zm9.042-19.375a2.924 2.924 0 1 1 -2.924-2.926 2.923 2.923 0 0 1 2.924 2.926zm-15.499-21.957a2.924 2.924 0 1 1 -2.924-2.926 2.923 2.923 0 0 1 2.924 2.926z"/><path d="m311.203 592.171a2.924 2.924 0 1 1 -2.924-2.926 2.923 2.923 0 0 1 2.924 2.926zm14.208 7.749a2.924 2.924 0 1 1 -2.924-2.926 2.923 2.923 0 0 1 2.924 2.926zm-16.791 18.083a2.924 2.924 0 1 1 -2.924-2.925 2.923 2.923 0 0 1 2.924 2.925z"/><path d="m311.203 592.171a2.924 2.924 0 1 1 -2.924-2.926 2.923 2.923 0 0 1 2.924 2.926zm14.208 7.749a2.924 2.924 0 1 1 -2.924-2.926 2.923 2.923 0 0 1 2.924 2.926zm-5.166-27.124a2.924 2.924 0 1 1 -2.924-2.926 2.923 2.923 0 0 1 2.924 2.926zm-30.999-125.287a2.924 2.924 0 1 1 -2.924-2.926 2.923 2.923 0 0 1 2.924 2.926zm15.5-10.333a2.924 2.924 0 1 1 -2.924-2.926 2.923 2.923 0 0 1 2.924 2.926zm28.416 9.041a2.924 2.924 0 1 1 -2.924-2.926 2.923 2.923 0 0 1 2.924 2.926z"/><path d="m289.246 447.509a2.924 2.924 0 1 1 -2.924-2.926 2.923 2.923 0 0 1 2.924 2.926zm56.831-14.208a2.924 2.924 0 1 1 -2.924-2.926 2.923 2.923 0 0 1 2.924 2.926zm2.583 14.208a2.924 2.924 0 1 1 -2.924-2.926 2.923 2.923 0 0 1 2.924 2.926zm-15.498-1.292a2.924 2.924 0 1 1 -2.924-2.926 2.923 2.923 0 0 1 2.924 2.926zm-54.249-27.124a2.924 2.924 0 1 1 -2.924-2.926 2.923 2.923 0 0 1 2.924 2.926z"/><path d="m278.913 419.093a2.924 2.924 0 1 1 -2.924-2.926 2.923 2.923 0 0 1 2.924 2.926z"/><path d="m278.913 419.093a2.924 2.924 0 1 1 -2.924-2.926 2.923 2.923 0 0 1 2.924 2.926zm3.875-23.249a2.924 2.924 0 1 1 -2.924-2.926 2.923 2.923 0 0 1 2.924 2.926z"/><path d="m278.913 419.093a2.924 2.924 0 1 1 -2.924-2.926 2.923 2.923 0 0 1 2.924 2.926zm10.333 28.416a2.924 2.924 0 1 1 -2.924-2.926 2.923 2.923 0 0 1 2.924 2.926z"/><path d="m278.913 419.093a2.924 2.924 0 1 1 -2.924-2.926 2.923 2.923 0 0 1 2.924 2.926zm25.833 18.083a2.924 2.924 0 1 1 -2.924-2.926 2.923 2.923 0 0 1 2.924 2.926zm-15.5 10.333a2.924 2.924 0 1 1 -2.924-2.926 2.923 2.923 0 0 1 2.924 2.926zm32.29-25.833a2.924 2.924 0 1 1 -2.924-2.926 2.923 2.923 0 0 1 2.924 2.926zm-38.748-25.832a2.924 2.924 0 1 1 -2.924-2.926 2.923 2.923 0 0 1 2.924 2.926z"/><path d="m278.913 419.093a2.924 2.924 0 1 1 -2.924-2.926 2.923 2.923 0 0 1 2.924 2.926zm42.623 2.583a2.924 2.924 0 1 1 -2.924-2.926 2.923 2.923 0 0 1 2.924 2.926zm-16.79 15.5a2.924 2.924 0 1 1 -2.924-2.926 2.923 2.923 0 0 1 2.924 2.926z"/><path d="m278.913 419.093a2.924 2.924 0 1 1 -2.924-2.926 2.923 2.923 0 0 1 2.924 2.926zm42.623 2.583a2.924 2.924 0 1 1 -2.924-2.926 2.923 2.923 0 0 1 2.924 2.926zm1.293-25.832a2.924 2.924 0 1 1 -2.924-2.926 2.923 2.923 0 0 1 2.924 2.926zm-40.041 0a2.924 2.924 0 1 1 -2.924-2.926 2.923 2.923 0 0 1 2.924 2.926z"/><path d="m321.536 421.676a2.924 2.924 0 1 1 -2.924-2.926 2.923 2.923 0 0 1 2.924 2.926zm11.626 24.541a2.924 2.924 0 1 1 -2.924-2.926 2.923 2.923 0 0 1 2.924 2.926zm-28.416-9.041a2.924 2.924 0 1 1 -2.924-2.926 2.923 2.923 0 0 1 2.924 2.926z"/><path d="m321.536 421.676a2.924 2.924 0 1 1 -2.924-2.926 2.923 2.923 0 0 1 2.924 2.926zm24.541 11.625a2.924 2.924 0 1 1 -2.924-2.926 2.923 2.923 0 0 1 2.924 2.926zm-12.915 12.916a2.924 2.924 0 1 1 -2.924-2.926 2.923 2.923 0 0 1 2.924 2.926zm-10.333-50.373a2.924 2.924 0 1 1 -2.924-2.926 2.923 2.923 0 0 1 2.924 2.926z"/><path d="m321.536 421.676a2.924 2.924 0 1 1 -2.924-2.926 2.923 2.923 0 0 1 2.924 2.926zm24.541 11.625a2.924 2.924 0 1 1 -2.924-2.926 2.923 2.923 0 0 1 2.924 2.926z"/><path d="m321.536 421.676a2.924 2.924 0 1 1 -2.924-2.926 2.923 2.923 0 0 1 2.924 2.926zm1.293-25.832a2.924 2.924 0 1 1 -2.924-2.926 2.923 2.923 0 0 1 2.924 2.926zm25.831 51.665a2.924 2.924 0 1 1 -2.924-2.926 2.923 2.923 0 0 1 2.924 2.926zm-2.583-14.208a2.924 2.924 0 1 1 -2.924-2.926 2.923 2.923 0 0 1 2.924 2.926z"/><path d="m346.077 433.301a2.924 2.924 0 1 1 -2.924-2.926 2.923 2.923 0 0 1 2.924 2.926zm2.583 14.208a2.924 2.924 0 1 1 -2.924-2.926 2.923 2.923 0 0 1 2.924 2.926z"/></g></svg>