<svg xmlns="http://www.w3.org/2000/svg" width="168.68" height="22.789"><defs><linearGradient id="a" x1=".5" x2=".5" y2="1" gradientUnits="objectBoundingBox"><stop offset="0" stop-color="#e46026"/><stop offset="1" stop-color="#f79421"/></linearGradient></defs><path d="M0 9.594v12.818h16.495V18.95H3.872v-5.915H14.92V9.573L0 9.594zm156.372-3.459a2.339 2.339 0 0 1 .944-1.873 4.071 4.071 0 0 1 2.644-.771 8.1 8.1 0 0 1 2.99.582 13.511 13.511 0 0 1 2.99 1.684l2.078-2.927a12.975 12.975 0 0 0-3.636-2.062 12.624 12.624 0 0 0-4.36-.708A9.606 9.606 0 0 0 157 .516a6.946 6.946 0 0 0-2.377 1.307 6.146 6.146 0 0 0-1.558 2.03 5.993 5.993 0 0 0-.567 2.628 6.275 6.275 0 0 0 .488 2.612 5 5 0 0 0 1.416 1.826 7.968 7.968 0 0 0 2.3 1.259 26.419 26.419 0 0 0 3.132.913 25.47 25.47 0 0 1 2.5.724 6.325 6.325 0 0 1 1.511.74 2.141 2.141 0 0 1 .756.866 2.666 2.666 0 0 1 .2 1.07 2.388 2.388 0 0 1-1.055 2.046 4.8 4.8 0 0 1-2.849.756 8.927 8.927 0 0 1-3.714-.74 13.537 13.537 0 0 1-3.242-2.125l-2.329 2.77a13.32 13.32 0 0 0 4.312 2.66 13.9 13.9 0 0 0 4.879.866 10.883 10.883 0 0 0 3.179-.441 7.173 7.173 0 0 0 2.487-1.291 5.937 5.937 0 0 0 1.621-2.077 6.461 6.461 0 0 0 .582-2.8 5.87 5.87 0 0 0-.457-2.408 5.161 5.161 0 0 0-1.338-1.794 7.652 7.652 0 0 0-2.219-1.306 24.726 24.726 0 0 0-3.069-.976q-1.574-.378-2.6-.724a6.4 6.4 0 0 1-1.605-.755 2.321 2.321 0 0 1-.8-.881 2.665 2.665 0 0 1-.22-1.133zM144 .378v22.034h3.872V.378zm-16.435 5.757a2.339 2.339 0 0 1 .944-1.873 4.072 4.072 0 0 1 2.644-.771 8.1 8.1 0 0 1 2.99.582 13.516 13.516 0 0 1 2.99 1.684l2.078-2.927a12.975 12.975 0 0 0-3.636-2.062 12.624 12.624 0 0 0-4.36-.708 9.6 9.6 0 0 0-3.022.456 6.942 6.942 0 0 0-2.377 1.307 6.15 6.15 0 0 0-1.558 2.03 5.994 5.994 0 0 0-.567 2.628 6.276 6.276 0 0 0 .488 2.612 5 5 0 0 0 1.417 1.826 7.967 7.967 0 0 0 2.3 1.259 26.429 26.429 0 0 0 3.132.913 25.483 25.483 0 0 1 2.5.724 6.321 6.321 0 0 1 1.511.74 2.141 2.141 0 0 1 .756.866 2.669 2.669 0 0 1 .2 1.07 2.387 2.387 0 0 1-1.054 2.046 4.8 4.8 0 0 1-2.849.756 8.926 8.926 0 0 1-3.714-.74 13.531 13.531 0 0 1-3.242-2.125l-2.329 2.77a13.319 13.319 0 0 0 4.312 2.66 13.9 13.9 0 0 0 4.879.866 10.883 10.883 0 0 0 3.179-.441 7.175 7.175 0 0 0 2.487-1.291 5.937 5.937 0 0 0 1.621-2.077 6.462 6.462 0 0 0 .582-2.8 5.87 5.87 0 0 0-.456-2.408 5.161 5.161 0 0 0-1.338-1.794 7.655 7.655 0 0 0-2.219-1.306 24.728 24.728 0 0 0-3.069-.976q-1.574-.378-2.6-.724a6.4 6.4 0 0 1-1.605-.755 2.317 2.317 0 0 1-.8-.881 2.663 2.663 0 0 1-.22-1.133zm-7.148 5.225a11.525 11.525 0 0 0-.85-4.407 10.935 10.935 0 0 0-5.981-6.059 11.784 11.784 0 0 0-4.659-.9 11.483 11.483 0 0 0-8.31 3.384 11.071 11.071 0 0 0-2.392 3.636 11.853 11.853 0 0 0 0 8.814 10.935 10.935 0 0 0 5.981 6.059 11.784 11.784 0 0 0 4.659.9 11.481 11.481 0 0 0 8.31-3.384 11.067 11.067 0 0 0 2.392-3.635 11.527 11.527 0 0 0 .85-4.407zm-4.061.063a8.386 8.386 0 0 1-.551 3.037 7.672 7.672 0 0 1-1.527 2.487 7.128 7.128 0 0 1-2.345 1.668 7.619 7.619 0 0 1-6.028-.016 7.34 7.34 0 0 1-2.377-1.7 7.714 7.714 0 0 1-1.542-2.5 8.649 8.649 0 0 1 0-6.075 7.669 7.669 0 0 1 1.527-2.487 7.125 7.125 0 0 1 2.345-1.668 7.616 7.616 0 0 1 6.028.016 7.343 7.343 0 0 1 2.377 1.7 7.717 7.717 0 0 1 1.542 2.5 8.387 8.387 0 0 1 .551 3.038zm-26.822 4.186L77.734.374h-3.588v22.034h3.809V6.735l12.15 15.676h3.242V.378h-3.809v15.235zm-19.771 3.746v-9.254h-9.38v3.368h5.635v4.123a8.3 8.3 0 0 1-2.377 1.212 9.251 9.251 0 0 1-2.943.457 7.592 7.592 0 0 1-3.069-.6 7.1 7.1 0 0 1-2.361-1.653 7.3 7.3 0 0 1-1.527-2.5 9.009 9.009 0 0 1-.535-3.148 8.265 8.265 0 0 1 .551-3.022 8.058 8.058 0 0 1 1.511-2.487 7.029 7.029 0 0 1 2.266-1.684 6.542 6.542 0 0 1 2.817-.614 9.731 9.731 0 0 1 1.9.173 8.569 8.569 0 0 1 1.59.472 8 8 0 0 1 1.385.74 13.909 13.909 0 0 1 1.291.976l2.455-2.927a13.984 13.984 0 0 0-1.747-1.275 11.032 11.032 0 0 0-1.9-.928 12.12 12.12 0 0 0-2.188-.582 15.439 15.439 0 0 0-2.629-.2 11.333 11.333 0 0 0-4.58.913 11.025 11.025 0 0 0-5.949 6.107 11.719 11.719 0 0 0-.834 4.407 12.175 12.175 0 0 0 .818 4.5 10.47 10.47 0 0 0 5.918 6 12.24 12.24 0 0 0 4.69.866 13.934 13.934 0 0 0 2.77-.267 13.538 13.538 0 0 0 4.611-1.841 16.451 16.451 0 0 0 1.81-1.322zM41.021.374v22.034h3.872V.378zm-3.528 7.4a7.657 7.657 0 0 0-.583-3.053 6.6 6.6 0 0 0-1.668-2.329 7.394 7.394 0 0 0-2.644-1.5A10.965 10.965 0 0 0 29.12.373h-8.688v3.525H28.8a5.542 5.542 0 0 1 3.463.992 3.517 3.517 0 0 1 1.29 2.975 3.6 3.6 0 0 1-1.275 2.88 5.191 5.191 0 0 1-3.478 1.09c-2.8 0-5.573.009-8.373.009v10.568H24.3V15.33h4.375a11.75 11.75 0 0 0 3.431-.488 8.418 8.418 0 0 0 2.8-1.432 6.728 6.728 0 0 0 1.889-2.361 7.366 7.366 0 0 0 .698-3.274z" fill="#fff"/><path transform="translate(0 .378)" fill="url(#a)" d="M0 0h16.544v3.462H0z"/></svg>